<svg xmlns="http://www.w3.org/2000/svg" viewBox="0 0 684.71 384.48"><defs><style>.cls-1{fill:#f4e7d4;}.cls-2{fill:#e52627;}.cls-3{fill:#e41b21;}.cls-4,.cls-5{fill:#4e4443;}.cls-5{fill-rule:evenodd;}</style></defs><title>Fichier 1</title><g id="Calque_2" data-name="Calque 2"><g id="Calque_1-2" data-name="Calque 1"><path class="cls-1" d="M675,113.36v78.88l-.38,78.93a7.06,7.06,0,0,1-8.9,6.76l-1.79-.49c-2.5-.66-10-1.64-14.31,1.57-2.81,2.09-4.31,6.13-4.45,12l0,1.4a7,7,0,0,1-7,6.87H550.32v6.33a7,7,0,0,1-8.94,6.76l-1.79-.49c-4.45-1.19-17.57-3.19-24.35,2.07-3.55,2.74-5.28,7.72-5.14,14.78l0,1.43a7.1,7.1,0,0,1-2,5.06,7,7,0,0,1-5,2.11H449.9a93.45,93.45,0,0,1-22.21,19.5c-15.57,10-42.88,22-84.82,22.16h-.67c-41.78,0-69.23-12-84.9-22.12a95.18,95.18,0,0,1-22.44-19.54H181.65a6.93,6.93,0,0,1-5-2.11,7,7,0,0,1-2-5.06l0-1.43c.13-7.06-1.6-12-5.15-14.78-6.8-5.28-19.9-3.28-24.37-2.07l-1.75.52a7,7,0,0,1-8.94-6.79v-6.33H46.68a7,7,0,0,1-7.06-6.87l0-1.37c-.15-5.91-1.64-9.95-4.44-12-4.32-3.21-11.84-2.23-14.38-1.57l-1.75.49a7.06,7.06,0,0,1-8.9-6.76l-.38-78.88V113.36a7,7,0,0,1,8.9-6.79l1.77.47c2.49.66,10,1.64,14.35-1.57,2.79-2.09,4.29-6.13,4.43-12l0-1.37a7,7,0,0,1,7-6.88H134V78.88A7,7,0,0,1,143,72.1l1.79.49c4.45,1.21,17.57,3.21,24.35-2.07,3.55-2.74,5.28-7.7,5.14-14.75l0-1.44a7,7,0,0,1,7-7.19h53c8.88-11.63,38.46-41.66,107.52-41.66H343l.35,0c41,.09,68.29,12.06,84,22.08a98.74,98.74,0,0,1,22.82,19.56h53.3a7,7,0,0,1,5,2.11,7,7,0,0,1,2,5.08l0,1.41c-.14,7.08,1.59,12,5.14,14.81,6.81,5.25,19.92,3.25,24.39,2l1.76-.49a7,7,0,0,1,8.94,6.78v6.33h87.73a7.06,7.06,0,0,1,7,6.88l0,1.37c.14,5.88,1.64,9.92,4.45,12,4.29,3.21,11.77,2.25,14.33,1.57h.05l1.73-.47a7,7,0,0,1,8.89,6.79Z"/><path class="cls-2" d="M113,178.94q.22,12.12-5.26,17t-19.43,4.91q-1.36,0-2.91-.06c-1,0-2.08-.09-3.14-.17l-15.54-1.14,3.77-27.77.23-35.54L68.67,115l12.68.57q18.06.45,24.23,4.8,6.28,4.11,6.4,16.91Zm-15.89-9L97,149.11q0-1-.06-3c0-1.29-.11-2.59-.23-3.88s-.24-2.46-.4-3.49a4.55,4.55,0,0,0-.45-1.77c-1.07-.91-3.24-1.49-6.52-1.71l-7.88-.35L81.24,177l8.34-.12Q97.13,176.78,97.12,169.91Z"/><path class="cls-2" d="M135.29,176.43l4.23,23.65-24.23,1.26,5.15-26.17,1.14-39.54-4.91-17.83L139.52,116l-3.66,20.57Z"/><path class="cls-2" d="M188.55,132.2,188.2,153q-.34,14-16.68,15.08c-.23,0-1.72.23-4.46.69-1.37.15-2.46.29-3.26.4s-1.27.17-1.42.17l.68,16.34L168,200.54l-24,1.26L146.49,182l.46-43-3.89-21.49,17.72-1.48a25.79,25.79,0,0,1,3.37-.23h3.25q11.08,0,16.23,3.77T188.55,132.2Zm-14.06,11.66a12.7,12.7,0,0,0-.52-3.2,20.68,20.68,0,0,0-1.37-3.72,17,17,0,0,0-1.88-3.08,2.78,2.78,0,0,0-2.06-1.32,10.06,10.06,0,0,0-2.4.35l-3.88.45.68,25h3.2a8.89,8.89,0,0,0,5.31-1.77,6.68,6.68,0,0,0,2.69-5.31Z"/><path class="cls-2" d="M258.65,187.27Q259,203,243.11,203a29.05,29.05,0,0,1-4-.28,30.28,30.28,0,0,1-3.77-.75,32.83,32.83,0,0,1-4-1.14l-14.28-1.6-1.49-21.94,17.14.91v2.63a6.11,6.11,0,0,0,.12,1.77l.34.63c.61,1,1.75,1.49,3.43,1.49a16.47,16.47,0,0,0,5.37-.57c.91-.38,1.58-1.38,2-3a18.85,18.85,0,0,0,.63-4.68,14.37,14.37,0,0,0-.4-4.17,6.42,6.42,0,0,0-1.2-2,7.93,7.93,0,0,0-4.35-1.89c-2-.34-4.83-.86-8.57-1.54a15.38,15.38,0,0,1-4.74-1.71,16.83,16.83,0,0,1-4.8-4,21.15,21.15,0,0,1-3.66-6.69,27.79,27.79,0,0,1-1.31-9.77l-.12-10.4a13.42,13.42,0,0,1,4.69-11,18.22,18.22,0,0,1,11.89-4c1.67,0,3.37.08,5.08.23s3.26.3,4.63.45l4.68.69,10.4.12-.22,20.79-9.72-3.42-.11-1.83c0-.69-.54-1.26-1.6-1.72a11.33,11.33,0,0,0-3.77-.8,17.32,17.32,0,0,0-4.4.35,6,6,0,0,0-3.37,1.71,4.37,4.37,0,0,0-.46,1.37,16.19,16.19,0,0,0-.34,2.34c-.08.88-.14,1.78-.18,2.69s-.05,1.64-.05,2.17q0,2.4.57,2.91a9.29,9.29,0,0,0,1.83,1.2,15.89,15.89,0,0,0,1.94.52q1.71.41,5,1.08c1.29.23,2.57.44,3.83.63s2.53.4,3.82.63a6.87,6.87,0,0,1,3.6,2.52c1,1.29,1.85,2.4,2.46,3.31q2.52,3.66,2.74,11.31Z"/><path class="cls-2" d="M294.28,202.11l.65-15.78,1.77-.16-1.61-24.72-7.81,19.81-13.45-16.51v21.82l2.18.24,3.3,16.51-16.83-.41L263.61,187l.56-28.33-2-16h8.53l14.74,19.88,6.36-19.88,17.71.16L308,159.36l.4,27.29L311,203.32Z"/><path class="cls-2" d="M344.36,190q.08,7.74-3.3,11.27a7.2,7.2,0,0,1-4.75,2.06,69.37,69.37,0,0,1-7,0,64.6,64.6,0,0,1-7.77-.53,6.46,6.46,0,0,1-4.63-2.61q-2.49-3.47-2.49-11.84L314.33,158q0-7.32,2.9-10.63a6.72,6.72,0,0,1,4.38-2.21q2.77-.36,6.89-.52,4.67-.24,7.81-.24a6.37,6.37,0,0,1,4.83,1.77q2.73,3.06,2.81,11.35Zm-8.14-29.62c0-.49-.49-.95-1.48-1.41a10.86,10.86,0,0,0-3.35-.89,8.55,8.55,0,0,0-3.42.28,1.94,1.94,0,0,0-1.57,1.94l-.32,22.06c0,2.25.38,3.86,1.13,4.83.16.26.63.45,1.41.56a14.29,14.29,0,0,0,2.49.12,21.13,21.13,0,0,0,2.42-.2,2.25,2.25,0,0,0,1.33-.48c.59-.7.93-2.2,1-4.51Z"/><path class="cls-2" d="M381.79,159.36l-10.3,10.87,11.59,17.47,5,16.26-13.61-.08-5-16.42-5.31-8.3L363,187.94l-.48,15.22H348.06l2.41-17.64-.24-30.27-.88-11.51h14.73l-1.53,13.12.4,6,10.39-8.21.88-10.95h13.53Z"/><path class="cls-2" d="M424.38,159.52l-7.25.24.16-3.14H403.93v10.23l7.33-.24-.33,10.06-7-.4v16.42l10.95.16-.08-8.45,10-.49-.4,19.25-33,.72,1.53-14.57.73-27.94-3.47-18,34.7-1.45Z"/><path class="cls-2" d="M465.76,158.31l.48,32.77,1,12.4-14.74-.57,1-10.86,2.17-1V177.63l-12-.48.24,12,1.77,2.73V203l-14.49.49,2-14.41L432,158.72,429,143.18l18-.65-1.85,13-1.13.16.4,11.75,9.58.73.41-9.42L453.36,157l-2-14.5,16.66.89Z"/><path class="cls-2" d="M501.5,190q.09,7.74-3.3,11.27a7.17,7.17,0,0,1-4.75,2.06,69.14,69.14,0,0,1-7,0,64.3,64.3,0,0,1-7.77-.53,6.44,6.44,0,0,1-4.63-2.61q-2.49-3.47-2.5-11.84L471.47,158q0-7.32,2.9-10.63a6.77,6.77,0,0,1,4.39-2.21q2.78-.36,6.88-.52c3.11-.16,5.72-.24,7.81-.24a6.36,6.36,0,0,1,4.83,1.77q2.75,3.06,2.82,11.35Zm-8.13-29.62c0-.49-.5-.95-1.49-1.41a10.72,10.72,0,0,0-3.34-.89,8.55,8.55,0,0,0-3.42.28,1.93,1.93,0,0,0-1.57,1.94l-.32,22.06c0,2.25.37,3.86,1.12,4.83.17.26.63.45,1.41.56a14.4,14.4,0,0,0,2.5.12,20.94,20.94,0,0,0,2.41-.2,2.22,2.22,0,0,0,1.33-.48c.59-.7.94-2.2,1.05-4.51Z"/><path class="cls-2" d="M538.13,146.72,537,156.06l1,32.36q.24,7.17-3.14,10.79t-10.95,4a29.11,29.11,0,0,1-4.18,0,40,40,0,0,1-4.43-.57,23.41,23.41,0,0,1-3.9-1,6.42,6.42,0,0,1-2.54-1.53q-3-3.39-3-10.79l-.24-28.82L505.13,148l12.31.16-.64,10.63L515,161.53l1,20.86a3.58,3.58,0,0,0,1,2.33,9,9,0,0,0,2.17,1.65,10.68,10.68,0,0,0,2.54,1,9.25,9.25,0,0,0,2.09.32q5,0,5-4.51l-.32-26.33-2.33-1.12-1-9.66Z"/><path class="cls-2" d="M572.27,192q.24,11.1-10.95,11.11a19.74,19.74,0,0,1-2.82-.21,20.56,20.56,0,0,1-2.66-.52,23.84,23.84,0,0,1-2.81-.8L543,200.42l-1-15.46,12.07.64v1.86a4.66,4.66,0,0,0,.08,1.24,3.48,3.48,0,0,1,.25.45,2.58,2.58,0,0,0,2.41,1,11.47,11.47,0,0,0,3.78-.4,2.81,2.81,0,0,0,1.41-2.09,12.84,12.84,0,0,0,.45-3.3,9.84,9.84,0,0,0-.29-2.94,4.63,4.63,0,0,0-.84-1.41,5.66,5.66,0,0,0-3.06-1.33q-2.1-.36-6-1.09a10.85,10.85,0,0,1-3.34-1.2,11.58,11.58,0,0,1-3.38-2.82,14.64,14.64,0,0,1-2.58-4.71,19.47,19.47,0,0,1-.92-6.88l-.08-7.33a9.41,9.41,0,0,1,3.3-7.73,12.81,12.81,0,0,1,8.37-2.81c1.18,0,2.37,0,3.58.16s2.3.21,3.26.32l3.3.48,7.33.08-.16,14.65L564,157.43l-.08-1.29c0-.48-.38-.89-1.13-1.21a7.74,7.74,0,0,0-2.66-.56,12.59,12.59,0,0,0-3.1.24,4.28,4.28,0,0,0-2.37,1.21,3,3,0,0,0-.32,1,13.75,13.75,0,0,0-.25,1.65c-.05.62-.09,1.25-.12,1.9s0,1.15,0,1.53c0,1.12.14,1.81.41,2a6.7,6.7,0,0,0,1.28.84,10.66,10.66,0,0,0,1.37.37c.81.19,2,.44,3.54.76.92.16,1.81.31,2.7.44l2.7.45a4.92,4.92,0,0,1,2.53,1.77c.73.91,1.3,1.69,1.74,2.33,1.17,1.72,1.82,4.38,1.93,8Z"/><path class="cls-2" d="M608.9,159.52l-7.25.24.16-3.14H588.45v10.23l7.32-.24-.32,10.06-7-.4v16.42l10.95.16-.08-8.45,10-.49-.4,19.25-33,.72,1.53-14.57.72-27.94-3.46-18,34.7-1.45Z"/><path class="cls-2" d="M233.63,271.17l-1.89-17.56h-6.93l-1.75,17.09-11.64.54.61-9.76h2.56l4.5-30.21h-2.82l-.41-10.56h23.28L239,232.28h-2.83l4.58,29.41h2.49l.81,10.09Zm-4.24-37.81-2.83.13L226,245.07h4.85Z"/><path class="cls-2" d="M266.38,270.69l.38-9.29,1-.09-.95-14.56-4.59,11.66-7.92-9.71v12.84l1.28.14,1.94,9.72-9.9-.24.66-9.38.33-16.68-1.18-9.44h5l8.68,11.71,3.74-11.71,10.43.1-.9,9.76.23,16.07,1.52,9.81Z"/><path class="cls-2" d="M297.76,245.62l-4.27.14.1-1.85h-7.87v6l4.31-.14-.19,5.92-4.12-.23v9.67l6.44.09,0-5L298,260l-.23,11.33-19.44.42.9-8.58.43-16.44-2-10.57,20.43-.86Z"/><path class="cls-2" d="M323.26,263.25a27.74,27.74,0,0,1-.29,4.12,6.75,6.75,0,0,1-.8,2.66c-.73,1-2.17,1.51-4.31,1.51a4.2,4.2,0,0,1-3.75-1.82,8.19,8.19,0,0,1-1.23-4.67c0-.95.05-2,.14-3.08.06-.54.11-1,.14-1.47s0-.84,0-1.19q0-3.31-2.75-3l-2.37.24.24,8.15.57,1.85.66,5.5-8.67-.14,1.13-7.35-.47-17.87-1.09-10.43,7.39-.09a37.27,37.27,0,0,1,5.12.11,9.49,9.49,0,0,1,3.08.83,4.33,4.33,0,0,1,1.36,1.24,9,9,0,0,1,1.08,2,15.33,15.33,0,0,1,.72,2.3,8.84,8.84,0,0,1,.21,2.23l-.24,3.51a5,5,0,0,1-1.13,3.32l-.83.71a3.59,3.59,0,0,1-1.21.57c-.16,0-.25.08-.26.14s.05.11.21.14a2.49,2.49,0,0,1,2,1.47,10.22,10.22,0,0,1,.6,3.32c0,.16,0,.35,0,.59s0,.5-.07.78a4.35,4.35,0,0,1-.17.59c-.07.24-.15.48-.23.72s-.15.45-.21.64a1.48,1.48,0,0,0-.1.33,2.81,2.81,0,0,0,.17.9.93.93,0,0,0,.73.66,1.44,1.44,0,0,0,.62-.05,1.85,1.85,0,0,0,.83-.45,2,2,0,0,0,.57-1,3.88,3.88,0,0,0-.12-1.8,2.72,2.72,0,0,1,1.32.53,3.7,3.7,0,0,1,.95,1A3.24,3.24,0,0,1,323.26,263.25ZM313,246.85c0-.19,0-.44,0-.76s-.08-.65-.12-1a4.92,4.92,0,0,0-.22-.95,1.07,1.07,0,0,0-.33-.57,8.72,8.72,0,0,1-.83-.86,1.2,1.2,0,0,0-1-.47l-2.79.19.28,8.11,2.42-.05a3.37,3.37,0,0,0,1.94-.38c.32-.22.52-.82.62-1.8Z"/><path class="cls-2" d="M333.5,261.16l1.75,9.81-10.05.53,2.13-10.86.48-16.4-2-7.39,9.48-.76-1.52,8.53Z"/><path class="cls-2" d="M355.06,237.37l.38,14.22-7.68-.24.24-3.7c0-.19,0-.37,0-.54a4.32,4.32,0,0,0,0-.5c0-1.77-.75-2.65-2.23-2.65-1.64,0-2.39,1.23-2.23,3.69l.48,12.85a7.13,7.13,0,0,0,.52,2.8,1.8,1.8,0,0,0,.66.73,1.6,1.6,0,0,0,1.09.17,1.88,1.88,0,0,0,1.16-.5,4.28,4.28,0,0,0,.86-1.09,6.53,6.53,0,0,0,.56-1.45,9.94,9.94,0,0,0,.31-1.66,27.4,27.4,0,0,0,.15-4.36l6.49-.23-.62,7.82c-.28,3-1.06,5.2-2.32,6.49s-3.52,2.12-6.49,2.18c-3.23,0-5.5-.69-6.83-2.08s-1.94-3.56-2-6.59l-.38-16.36c-.09-2.93.35-5.13,1.33-6.58s2.62-2.14,4.93-2.14h1.75a4.72,4.72,0,0,1,.86,0,1.31,1.31,0,0,0,.73,0c.27-.08.51-.17.74-.26s.5-.27.75-.43Z"/><path class="cls-2" d="M372.93,271.21l-1.33-12.37h-4.88l-1.23,12-8.2.38.43-6.87h1.8l3.17-21.29h-2l-.28-7.44h16.4l-.1,8.15h-2L378,264.53h1.75l.57,7.11Zm-3-26.64-2,.1-.37,8.15H371Z"/><path class="cls-2" d="M405.16,245.33l0,24.84-8.68-.81L389.14,247v15.83l.86.14,1.18,8.39H382.7l.85-8.86-.14-17.21-.71-9.48,9.24.33,8.34,22.33-.52-12.8-.71-1.18-.19-7.82h7.49Z"/><path class="cls-2" d="M442,265.05c0,2.59-1,4.31-3,5.17q-2.37,1-9,1h-7.83l.91-9,.28-17.3-.85-8.77h9q10.53,0,10.53,7.21v8q0,3.47-4.46,4.12a6.81,6.81,0,0,1,3.22,1.19,4,4,0,0,1,1.24,3.17Zm-7.07-17.92v-.71a4.24,4.24,0,0,0-.42-2.18,2,2,0,0,0-1.76-.66l-.47,0-.52.07-3.65.43-.05,5.78,3.7,0a5.2,5.2,0,0,0,2.51-.47C434.66,249.08,434.88,248.33,434.88,247.13Zm-.9,14.32v-2.56c0-.89-.17-1.45-.52-1.71a3.8,3.8,0,0,0-2-.38h-3.27l.05,6.78h3.22a3.48,3.48,0,0,0,2.09-.38A2.4,2.4,0,0,0,434,261.45Z"/><path class="cls-2" d="M464.22,265.05q0,3.88-3,5.17-2.37,1-9,1h-7.82l.9-9,.29-17.3-.86-8.77h9q10.53,0,10.52,7.21v8q0,3.47-4.45,4.12a6.86,6.86,0,0,1,3.22,1.19,4,4,0,0,1,1.23,3.17Zm-7.06-17.92v-.71a4.13,4.13,0,0,0-.43-2.18,1.94,1.94,0,0,0-1.75-.66l-.47,0-.52.07-3.66.43,0,5.78,3.7,0a5.2,5.2,0,0,0,2.51-.47C456.94,249.08,457.16,248.33,457.16,247.13Zm-.9,14.32v-2.56c0-.89-.17-1.45-.52-1.71a3.8,3.8,0,0,0-2-.38h-3.27l.05,6.78h3.22a3.5,3.5,0,0,0,2.09-.38A2.4,2.4,0,0,0,456.26,261.45Z"/><path class="cls-2" d="M487.45,269.08a2.24,2.24,0,0,0,.92.28,2.86,2.86,0,0,0,.93,0c.34-.07.68-.15,1-.24a10.15,10.15,0,0,1-.57,1.56,5.9,5.9,0,0,1-.73,1.26,4,4,0,0,1-1,.92,1.09,1.09,0,0,1-.81.1,6.73,6.73,0,0,1-1-.29,11.19,11.19,0,0,1-1.28-.47l-1.76-2a4.64,4.64,0,0,1-4.36,2.09l-1.7,0a22.67,22.67,0,0,1-3-.16,15.15,15.15,0,0,1-3.06-.69,3.15,3.15,0,0,1-2-1.59c-.35-.82-.72-1.71-1.12-2.68a9.18,9.18,0,0,1-.54-3.62l.23-18.87q.11-4.69,1.9-6.64a2.8,2.8,0,0,1,1.35-.54,21.23,21.23,0,0,1,2.42-.33c.93-.08,1.92-.12,3-.12s2,0,3,.09a16.3,16.3,0,0,1,2.44.34A2.93,2.93,0,0,1,483,238q2,2.15,2,6.69l-.24,19.15c0,.28,0,.47,0,.57a2,2,0,0,1-.07.26,2.78,2.78,0,0,1-.12.26,2.92,2.92,0,0,0-.17.57,13.79,13.79,0,0,1,.95,1.13l.9,1.14.74.9A1.25,1.25,0,0,0,487.45,269.08ZM476.12,262l-.95-1.14-.28-2.09,1.61-1.32,2.37,2.46.14-.09a1.37,1.37,0,0,1,.33-.38c.07,0,.1-.26.1-.67l-.19-9.81a5.26,5.26,0,0,0-.52-2.65c-.29-.38-1.14-.67-2.56-.86a2.11,2.11,0,0,0-2.09.86,2.66,2.66,0,0,0-.52,1.18,8.23,8.23,0,0,0-.14,1.66l.19,9.67q0,3.36,2.46,3.18Z"/><path class="cls-3" d="M180.8,245.84a1.26,1.26,0,0,0-1.22,1l-10.08-2.61-5.59-8.78a1.25,1.25,0,0,0,.59-1.06,1.27,1.27,0,0,0-2.54,0,1.25,1.25,0,0,0,.59,1.06L157,244.19l-10.08,2.61a1.26,1.26,0,1,0-1.22,1.58,1.24,1.24,0,0,0,.8-.29l6.63,8-.64,10.39h-.08a1.27,1.27,0,1,0,1.27,1.27,1.39,1.39,0,0,0-.09-.46l9.68-3.82,9.69,3.82a1.18,1.18,0,0,0-.09.46,1.27,1.27,0,1,0,1.26-1.27H174l-.63-10.39,6.62-8a1.27,1.27,0,1,0,.8-2.25Z"/><path class="cls-3" d="M550.23,245.84a1.28,1.28,0,0,0-1.23,1l-10.07-2.61-5.59-8.78a1.25,1.25,0,0,0,.59-1.06,1.27,1.27,0,0,0-2.54,0,1.23,1.23,0,0,0,.59,1.06l-5.59,8.78-10.08,2.61a1.27,1.27,0,1,0-.42,1.29l6.62,8-.64,10.39h-.08a1.27,1.27,0,1,0,1.27,1.27,1.18,1.18,0,0,0-.09-.46l9.69-3.82,9.68,3.82a1.18,1.18,0,0,0-.09.46,1.27,1.27,0,1,0,1.27-1.27h-.08l-.64-10.39,6.63-8a1.22,1.22,0,0,0,.8.29,1.27,1.27,0,0,0,0-2.54Z"/><path class="cls-4" d="M681.87,105.29a7.25,7.25,0,0,0-6.31-1.23l-1.78.49h0c-2.63.69-10.33,1.68-14.75-1.62-2.89-2.15-4.44-6.31-4.58-12.37l0-1.41a7.27,7.27,0,0,0-7.26-7.08H556.81V75.56a7.25,7.25,0,0,0-9.2-7l-1.8.51c-4.6,1.25-18.1,3.31-25.11-2.1-3.65-2.85-5.43-8-5.29-15.24l0-1.45a7.15,7.15,0,0,0-2.06-5.23,7.25,7.25,0,0,0-5.18-2.17H453.33a101.59,101.59,0,0,0-23.49-20.14C413.66,12.44,385.52.12,343.37,0L343,0h-1.22C270.69,0,240.24,30.91,231.1,42.89H176.52a7.22,7.22,0,0,0-7.24,7.4l0,1.47C169.44,59,167.66,64.13,164,67c-7,5.44-20.48,3.38-25.06,2.13l-1.85-.51a7.25,7.25,0,0,0-9.2,7v6.51H37.59a7.24,7.24,0,0,0-7.23,7.08l-.05,1.41c-.14,6.06-1.69,10.22-4.55,12.37-4.47,3.3-12.21,2.29-14.78,1.62l-1.82-.49A7.24,7.24,0,0,0,0,111v81.25l.39,81.19a7.38,7.38,0,0,0,2.87,5.74,7.3,7.3,0,0,0,6.29,1.22l1.8-.51c2.61-.67,10.36-1.68,14.8,1.62,2.89,2.15,4.41,6.31,4.58,12.39l0,1.41A7.26,7.26,0,0,0,38,302.43h90.3V309a7.25,7.25,0,0,0,9.21,7l1.8-.53c4.6-1.25,18.08-3.31,25.08,2.13,3.66,2.82,5.44,8,5.3,15.21l0,1.48a7.26,7.26,0,0,0,7.26,7.37h54.77a97.57,97.57,0,0,0,23.09,20.12c16.14,10.38,44.39,22.77,87.39,22.77h.7c43.16-.14,71.28-12.48,87.3-22.82a95.88,95.88,0,0,0,22.86-20.07H507.8a7.18,7.18,0,0,0,5.18-2.17,7.3,7.3,0,0,0,2.06-5.2l0-1.48c-.13-7.26,1.65-12.39,5.3-15.21,7-5.41,20.48-3.36,25.06-2.13l1.85.51a7.24,7.24,0,0,0,9.2-7v-6.52h90.31a7.24,7.24,0,0,0,7.23-7.08l0-1.43c.14-6.06,1.69-10.22,4.58-12.37,4.44-3.3,12.16-2.29,14.72-1.62l1.85.51a7.25,7.25,0,0,0,9.16-7l.39-81.24V111A7.22,7.22,0,0,0,681.87,105.29ZM174.65,80.73c6.26-4.85,10.1-11.69,11.49-20.46h50.37a7.31,7.31,0,0,0,6.36-3.72l.37-.69c0-.1,5.53-9.39,19.56-18.61,11.31-7.43,36.62-19.84,79.51-19.84h.62c38.08,0,63.12,10.84,77.43,19.93,14.82,9.43,21.39,19,21.41,19l.44.64a7.26,7.26,0,0,0,6.06,3.26h50.31C500,69,503.8,75.88,510.07,80.73a30.62,30.62,0,0,0,6.15,3.68H168.5A30.35,30.35,0,0,0,174.65,80.73Zm335,223c-6.26,4.83-10.1,11.7-11.49,20.44H447.83a7.3,7.3,0,0,0-6.17,3.44l-.37.63c-.07.09-6.18,9.52-20.7,18.86-14.15,9.09-39.23,19.95-78.42,19.95-38.63,0-63.65-10.84-77.82-19.92-14.61-9.37-20.9-18.85-20.92-18.92l-.44-.67a7.22,7.22,0,0,0-6.13-3.37H186.53c-1.36-8.74-5.23-15.61-11.49-20.44a30.81,30.81,0,0,0-8-4.49H517.72A31.46,31.46,0,0,0,509.67,303.77ZM667.33,192.22,667,261.85c-5.69,0-12.72,1.28-18.75,5.74-5.48,4.07-9,9.92-10.64,17.43H561.85a7,7,0,0,0-1.73-.23H130.05a7.16,7.16,0,0,0-1.74.23H47.16c-1.59-7.51-5.17-13.36-10.65-17.43-6-4.49-13.07-5.69-18.75-5.74l-.35-69.61V122.63c5.66,0,12.69-1.27,18.7-5.74,5.48-4.07,9-9.92,10.64-17.43h91.3a7.16,7.16,0,0,0,2.82-.55h403a7.18,7.18,0,0,0,2.83.55H638c1.6,7.51,5.16,13.36,10.64,17.43,6,4.47,13,5.69,18.73,5.74Z"/><path class="cls-5" d="M310.56,32.08A10,10,0,0,0,306,30.9a11.27,11.27,0,0,0-3.95.58,11.14,11.14,0,0,0-7.23,6.92,12.51,12.51,0,0,0-.73,3.61,14.64,14.64,0,0,0,2.36,8.74,20.82,20.82,0,0,0,7.31,6.82,24.06,24.06,0,0,0,9.29,3,23.77,23.77,0,0,0,9.57-.85A25.1,25.1,0,0,0,331,55.3a23.86,23.86,0,0,0,6.26-7.54,7.28,7.28,0,0,0-1-.63,22.66,22.66,0,0,1-6,7.22A21.18,21.18,0,0,1,313.3,58.7,22.67,22.67,0,0,1,305,55.54a20.19,20.19,0,0,1-6.34-6.17,13.29,13.29,0,0,1-2.18-7.28,11.13,11.13,0,0,1,.41-3A9.5,9.5,0,0,1,306,32.16a8.44,8.44,0,0,1,4,1,6.17,6.17,0,0,1,2.92,3.11,3.67,3.67,0,0,1,.24,1.68,3.63,3.63,0,0,1-.35,1.23A4.37,4.37,0,0,1,311.09,41a7.59,7.59,0,0,1-2.38.89,6.31,6.31,0,0,1-1.43.08,2.32,2.32,0,0,0,1.06,1.31,3.53,3.53,0,0,0,1.71.53,4.34,4.34,0,0,0,2.34-.58,4.51,4.51,0,0,0,1.75-1.83,4.75,4.75,0,0,0,.5-1.79,7.33,7.33,0,0,0-.07-1.74,9.5,9.5,0,0,0-.54-2A7.33,7.33,0,0,0,310.56,32.08Z"/><path class="cls-5" d="M282.31,71.38a5.05,5.05,0,0,1-3.39.38,6.67,6.67,0,0,1-2.67-1.3,7.64,7.64,0,0,1-2.64-4.22,8.4,8.4,0,0,1,.49-4.91,10.41,10.41,0,0,1,4.14-4.93,14.07,14.07,0,0,1,7.2-2A20.27,20.27,0,0,1,293,55.81c.59.22,1.17.47,1.74.73,9.05,4.21,12.91,10.61,26.74,6.77C307.44,64.92,302.9,59,295.66,55c-.62-.34-1.25-.65-1.9-.95A21.6,21.6,0,0,0,285.45,52a15.36,15.36,0,0,0-8.59,2.22A13.37,13.37,0,0,0,275,55.64a12.9,12.9,0,0,0-1.42,1.58,12.11,12.11,0,0,0-1.73,3.31,10,10,0,0,0-.08,6.22,9.63,9.63,0,0,0,3.61,4.85,8.65,8.65,0,0,0,3.28,1.4,6.51,6.51,0,0,0,4.21-.56,4.59,4.59,0,0,0,1.72-1.64,3.78,3.78,0,0,0,.53-2.39,4.28,4.28,0,0,0-.74-1.89,3.52,3.52,0,0,0-1.3-1.15,2.92,2.92,0,0,0-1.94-.24,3.11,3.11,0,0,0-2.09,1.54,2.56,2.56,0,0,0-.33,1.48,2.47,2.47,0,0,0,.44,1.23,2.39,2.39,0,0,0,1.53,1,1.81,1.81,0,0,0,1.14-.17,1.1,1.1,0,0,0,.37-.35,2.17,2.17,0,0,1-.4-.22,1.53,1.53,0,0,1-.45-.54,1.55,1.55,0,0,1-.2-.74c0-.26.07-.28.16-.46a1.44,1.44,0,0,1,.52-.52,1.34,1.34,0,0,1,.65-.23,1.29,1.29,0,0,1,.83.3,1.74,1.74,0,0,1,.61,1.11A3,3,0,0,1,282.31,71.38Z"/><path class="cls-5" d="M312.5,68.61l7.77,1.68A63.23,63.23,0,0,0,327,71.37a30,30,0,0,0,11.65-.92,18.43,18.43,0,0,0,9.79-6.94,25.06,25.06,0,0,0,3.38-6.34,20.48,20.48,0,0,0,1.34-8.53,14.66,14.66,0,0,0-1.08-4.5,15.27,15.27,0,0,0-2.41-3.91,16.12,16.12,0,0,0-7.47-5,15.91,15.91,0,0,0-8.89-.11,17.79,17.79,0,0,0-7.63,4.28,16.59,16.59,0,0,0-4.51,7.41,14.09,14.09,0,0,0-.54,4.34,13,13,0,0,0,.9,4.27,12,12,0,0,0,2.3,3.71,10.28,10.28,0,0,0,3.56,2.52,9.75,9.75,0,0,0,8.5-.19A9.07,9.07,0,0,0,339.4,58a7.64,7.64,0,0,0-1.18-9.37,7.64,7.64,0,0,0-2-1.48c-.19.35-.38.71-.59,1a6.79,6.79,0,0,1,3.6,5.06,7.46,7.46,0,0,1-3.94,7.18,8.42,8.42,0,0,1-7.41.1,9.2,9.2,0,0,1-3.08-2.27,10.41,10.41,0,0,1-2-3.32,11.21,11.21,0,0,1-.7-3.8,12.49,12.49,0,0,1,.58-3.83A14.83,14.83,0,0,1,327,40.81a15.84,15.84,0,0,1,6.87-3.59,13.74,13.74,0,0,1,7.63.28c4.87,1.62,8.8,6.19,9.12,11.34a18.6,18.6,0,0,1-1.14,7.48,24.11,24.11,0,0,1-2.93,5.81A16.91,16.91,0,0,1,338,68.66,27.33,27.33,0,0,1,327.09,70a55.54,55.54,0,0,1-6.57-.9c-2.37-.44-4.93-1-7.78-1.63a61.5,61.5,0,0,0-8.5-1.23,15.46,15.46,0,0,0-3.58.18,7.27,7.27,0,0,0-2.8,1.08,5.61,5.61,0,0,0-2.09,2.48,4.45,4.45,0,0,0-.34,2.09,4.19,4.19,0,0,0,1.05,2.41,4.27,4.27,0,0,0,2.08,1.32,3.41,3.41,0,0,0,2.32-.18,2.71,2.71,0,0,0,1.6-3.14,1.79,1.79,0,0,0-.89-1.06,1.64,1.64,0,0,0-.92-.18,1,1,0,0,0-.8.46,1,1,0,0,1,.72.1.88.88,0,0,1,.47.93,1,1,0,0,1-.33.5,1.16,1.16,0,0,1-.65.31,1.43,1.43,0,0,1-.79-.11,2.54,2.54,0,0,1-.87-.65,2,2,0,0,1-.49-1,2.61,2.61,0,0,1,.06-1A4.19,4.19,0,0,1,299,68.93c1-1,2.54-1.66,5.14-1.53A57.94,57.94,0,0,1,312.5,68.61Z"/><path class="cls-5" d="M363.31,32.08a10.06,10.06,0,0,1,4.57-1.18,11.33,11.33,0,0,1,4,.58,11.48,11.48,0,0,1,5.6,3.92,11,11,0,0,1,1.62,3A12.86,12.86,0,0,1,379.8,42a14.66,14.66,0,0,1-2.37,8.74,20.79,20.79,0,0,1-7.3,6.82,24.11,24.11,0,0,1-9.29,3,23.73,23.73,0,0,1-9.57-.85,25.05,25.05,0,0,1-8.39-4.43,23.83,23.83,0,0,1-6.25-7.54,6.76,6.76,0,0,1,1-.63,22.53,22.53,0,0,0,6,7.22,21.16,21.16,0,0,0,16.94,4.35,22.74,22.74,0,0,0,8.34-3.16,20.06,20.06,0,0,0,6.33-6.17,13.39,13.39,0,0,0,2.19-7.28,11.13,11.13,0,0,0-.42-3,9.5,9.5,0,0,0-9.12-6.91,8.5,8.5,0,0,0-4,1A6.15,6.15,0,0,0,361,36.25a3.67,3.67,0,0,0-.24,1.68,3.23,3.23,0,0,0,.35,1.23,4.42,4.42,0,0,0,1.7,1.84,7.63,7.63,0,0,0,2.39.89,6.23,6.23,0,0,0,1.42.08,2.33,2.33,0,0,1-1,1.31,3.57,3.57,0,0,1-1.72.53,4.32,4.32,0,0,1-2.33-.58,4.44,4.44,0,0,1-1.75-1.83,4.75,4.75,0,0,1-.5-1.79,7.33,7.33,0,0,1,.07-1.74,9.41,9.41,0,0,1,.53-2A7.33,7.33,0,0,1,363.31,32.08Z"/><path class="cls-5" d="M391.57,71.38a5,5,0,0,0,3.38.38,6.71,6.71,0,0,0,2.68-1.3,7.56,7.56,0,0,0,2.63-4.22,8.39,8.39,0,0,0-.48-4.91,10.52,10.52,0,0,0-4.14-4.93,14.07,14.07,0,0,0-7.2-2,20.27,20.27,0,0,0-7.59,1.45c-.59.22-1.17.47-1.74.73-9.05,4.21-12.91,10.61-26.74,6.77C366.43,64.92,371,59,378.22,55c.61-.34,1.24-.65,1.89-.95A21.65,21.65,0,0,1,388.43,52,15.33,15.33,0,0,1,397,54.22a13.37,13.37,0,0,1,1.84,1.42A11.73,11.73,0,0,1,402,60.53a10,10,0,0,1,.08,6.22,9.61,9.61,0,0,1-3.6,4.85A8.72,8.72,0,0,1,395.2,73a6.5,6.5,0,0,1-4.21-.56,4.51,4.51,0,0,1-1.72-1.64,3.73,3.73,0,0,1-.54-2.39,4.54,4.54,0,0,1,.74-1.89,3.68,3.68,0,0,1,1.3-1.15,2.93,2.93,0,0,1,1.94-.24,3.12,3.12,0,0,1,2.1,1.54,2.73,2.73,0,0,1,.33,1.48,2.47,2.47,0,0,1-.45,1.23,2.37,2.37,0,0,1-1.53,1,1.76,1.76,0,0,1-1.13-.17,1.1,1.1,0,0,1-.37-.35,2.18,2.18,0,0,0,.39-.22,1.55,1.55,0,0,0,.46-.54,1.68,1.68,0,0,0,.2-.74c0-.26-.08-.28-.16-.46a1.55,1.55,0,0,0-.53-.52,1.31,1.31,0,0,0-.65-.23,1.26,1.26,0,0,0-.82.3,1.71,1.71,0,0,0-.62,1.11A3,3,0,0,0,391.57,71.38Z"/><path class="cls-5" d="M361.38,68.61l-7.77,1.68a63.64,63.64,0,0,1-6.71,1.08,30,30,0,0,1-11.65-.92,18.4,18.4,0,0,1-9.8-6.94,25.71,25.71,0,0,1-3.38-6.34,20.48,20.48,0,0,1-1.33-8.53,14.38,14.38,0,0,1,1.08-4.5,15.23,15.23,0,0,1,2.4-3.91,16.1,16.1,0,0,1,7.48-5,15.88,15.88,0,0,1,8.88-.11,17.68,17.68,0,0,1,7.63,4.28,16.61,16.61,0,0,1,4.52,7.41,13.79,13.79,0,0,1,.53,4.34,13,13,0,0,1-.89,4.27,12.2,12.2,0,0,1-2.3,3.71,10.46,10.46,0,0,1-3.56,2.52,9.78,9.78,0,0,1-8.51-.19,9.2,9.2,0,0,1-3.53-3.5,7.63,7.63,0,0,1,1.19-9.37,7.32,7.32,0,0,1,2-1.48c.18.35.38.71.58,1a6.82,6.82,0,0,0-3.6,5.06,7.5,7.5,0,0,0,3.94,7.18,8.44,8.44,0,0,0,7.42.1,9.2,9.2,0,0,0,3.08-2.27,10.41,10.41,0,0,0,2-3.32,11.46,11.46,0,0,0,.7-3.8,12.2,12.2,0,0,0-.59-3.83,14.72,14.72,0,0,0-4.22-6.49,15.9,15.9,0,0,0-6.87-3.59,13.77,13.77,0,0,0-7.64.28c-4.87,1.62-8.8,6.19-9.11,11.34a18.6,18.6,0,0,0,1.13,7.48,24.11,24.11,0,0,0,2.93,5.81,16.91,16.91,0,0,0,8.47,6.53A27.33,27.33,0,0,0,346.78,70a55.7,55.7,0,0,0,6.58-.9c2.37-.44,4.92-1,7.77-1.63a61.72,61.72,0,0,1,8.5-1.23,15.51,15.51,0,0,1,3.59.18A7.17,7.17,0,0,1,376,67.45a5.62,5.62,0,0,1,2.1,2.48,4.58,4.58,0,0,1,.34,2.09,4.38,4.38,0,0,1-3.13,3.73,3.43,3.43,0,0,1-2.33-.18,2.72,2.72,0,0,1-1.59-3.14,1.81,1.81,0,0,1,.88-1.06,1.67,1.67,0,0,1,.93-.18,1,1,0,0,1,.79.46.93.93,0,0,0-.71.1.89.89,0,0,0-.48.93,1.15,1.15,0,0,0,.33.5,1.2,1.2,0,0,0,.65.31,1.42,1.42,0,0,0,.79-.11,2.36,2.36,0,0,0,.87-.65,1.94,1.94,0,0,0,.49-1,2.44,2.44,0,0,0-.06-1,4.19,4.19,0,0,0-1.05-1.79c-1-1-2.54-1.66-5.14-1.53A57.81,57.81,0,0,0,361.38,68.61Z"/><path class="cls-5" d="M310.56,351.06a10.12,10.12,0,0,1-4.57,1.18,11.35,11.35,0,0,1-11.18-7.51,12.44,12.44,0,0,1-.73-3.6,14.62,14.62,0,0,1,2.36-8.74,20.82,20.82,0,0,1,7.31-6.82,24.32,24.32,0,0,1,18.86-2.17,25.12,25.12,0,0,1,8.38,4.44,23.94,23.94,0,0,1,6.26,7.53,7.35,7.35,0,0,1-1,.64,22.8,22.8,0,0,0-6-7.23,21.13,21.13,0,0,0-16.94-4.34,22.65,22.65,0,0,0-8.34,3.15,20.3,20.3,0,0,0-6.34,6.17,13.34,13.34,0,0,0-2.18,7.29,11.19,11.19,0,0,0,.41,3,9.52,9.52,0,0,0,1.14,2.58,9.4,9.4,0,0,0,4.52,3.67A9.23,9.23,0,0,0,306,351a8.31,8.31,0,0,0,4-1,6.23,6.23,0,0,0,2.92-3.12,3.61,3.61,0,0,0,.24-1.67,3.76,3.76,0,0,0-.35-1.24,4.82,4.82,0,0,0-.66-1,4.52,4.52,0,0,0-1.05-.86,7.59,7.59,0,0,0-2.38-.89,6.72,6.72,0,0,0-1.43-.07,2.32,2.32,0,0,1,1.06-1.31,3.53,3.53,0,0,1,1.71-.53,4.34,4.34,0,0,1,2.34.58,4.49,4.49,0,0,1,1.75,1.82,4.8,4.8,0,0,1,.5,1.8,7.25,7.25,0,0,1-.07,1.73,9.42,9.42,0,0,1-.54,2.06A7.33,7.33,0,0,1,310.56,351.06Z"/><path class="cls-5" d="M282.31,311.76a5.05,5.05,0,0,0-3.39-.38,6.79,6.79,0,0,0-2.67,1.29,7.7,7.7,0,0,0-2.64,4.23,8.36,8.36,0,0,0,.49,4.9,10.38,10.38,0,0,0,4.14,4.94,14.26,14.26,0,0,0,7.2,2,20.27,20.27,0,0,0,7.59-1.45c.59-.22,1.17-.47,1.74-.74,9.05-4.21,12.91-10.6,26.74-6.76-14.07-1.62-18.61,4.29-25.85,8.29-.62.34-1.25.66-1.9.95a21.44,21.44,0,0,1-8.31,2.07,15.37,15.37,0,0,1-8.59-2.23A13.32,13.32,0,0,1,275,327.5a13,13,0,0,1-1.42-1.59,12.06,12.06,0,0,1-1.73-3.3,10,10,0,0,1-.08-6.23,9.72,9.72,0,0,1,3.61-4.85,8.48,8.48,0,0,1,3.28-1.39,6.45,6.45,0,0,1,4.21.56,4.59,4.59,0,0,1,1.72,1.64,3.76,3.76,0,0,1,.53,2.38,4.24,4.24,0,0,1-.74,1.89,3.46,3.46,0,0,1-1.3,1.16,3,3,0,0,1-1.94.24,3.14,3.14,0,0,1-2.09-1.54,2.58,2.58,0,0,1-.33-1.48,2.51,2.51,0,0,1,.44-1.24,2.41,2.41,0,0,1,1.53-1,1.68,1.68,0,0,1,1.14.17,1.1,1.1,0,0,1,.37.35,2.17,2.17,0,0,0-.4.22,1.53,1.53,0,0,0-.45.54,1.55,1.55,0,0,0-.2.74c0,.25.07.28.16.46a1.52,1.52,0,0,0,.52.52,1.33,1.33,0,0,0,.65.22,1.27,1.27,0,0,0,.83-.29,1.74,1.74,0,0,0,.61-1.11A3,3,0,0,0,282.31,311.76Z"/><path class="cls-5" d="M312.5,314.53l7.77-1.69a65.74,65.74,0,0,1,6.71-1.07,30,30,0,0,1,11.65.92,18.48,18.48,0,0,1,9.79,6.93A25.13,25.13,0,0,1,351.8,326a20.45,20.45,0,0,1,1.34,8.52,14.59,14.59,0,0,1-1.08,4.5,14.93,14.93,0,0,1-2.41,3.91,15.72,15.72,0,0,1-16.36,5.1,17.9,17.9,0,0,1-7.63-4.28,16.65,16.65,0,0,1-4.51-7.41,14.13,14.13,0,0,1-.54-4.34,12.93,12.93,0,0,1,.9-4.27,11.9,11.9,0,0,1,2.3-3.71,10.44,10.44,0,0,1,3.56-2.53,9.75,9.75,0,0,1,8.5.2,9,9,0,0,1,3.53,3.49,7.66,7.66,0,0,1-1.18,9.38,7.87,7.87,0,0,1-2,1.48c-.19-.36-.38-.71-.59-1.06a6.76,6.76,0,0,0,3.6-5.06,7.45,7.45,0,0,0-3.94-7.17,8.42,8.42,0,0,0-7.41-.1,9.07,9.07,0,0,0-3.08,2.27,10.47,10.47,0,0,0-2,3.31,11.31,11.31,0,0,0-.7,3.81,12.49,12.49,0,0,0,.58,3.83,14.88,14.88,0,0,0,4.23,6.49,15.84,15.84,0,0,0,6.87,3.59,13.83,13.83,0,0,0,7.63-.28c4.87-1.62,8.8-6.19,9.12-11.34a18.6,18.6,0,0,0-1.14-7.48A24.18,24.18,0,0,0,346.5,321a16.82,16.82,0,0,0-8.47-6.52,27.33,27.33,0,0,0-10.94-1.29,51.67,51.67,0,0,0-6.57.9c-2.37.44-4.93,1-7.78,1.62a58.61,58.61,0,0,1-8.5,1.23,15,15,0,0,1-3.58-.17,7.29,7.29,0,0,1-2.8-1.09,5.52,5.52,0,0,1-2.09-2.47,4.47,4.47,0,0,1-.34-2.1,4.19,4.19,0,0,1,1.05-2.4,4.27,4.27,0,0,1,2.08-1.32,3.29,3.29,0,0,1,2.32.18,2.71,2.71,0,0,1,1.6,3.14,1.76,1.76,0,0,1-.89,1.05,1.66,1.66,0,0,1-.92.19,1,1,0,0,1-.8-.46,1,1,0,0,0,.72-.1.88.88,0,0,0,.47-.93,1.06,1.06,0,0,0-.33-.51,1.15,1.15,0,0,0-.65-.3,1.35,1.35,0,0,0-.79.11,2.54,2.54,0,0,0-.87.65,1.94,1.94,0,0,0-.49,1,2.55,2.55,0,0,0,.06,1,4.16,4.16,0,0,0,1.05,1.8c1,1,2.54,1.65,5.14,1.53A59.38,59.38,0,0,0,312.5,314.53Z"/><path class="cls-5" d="M363.31,351.06a10.19,10.19,0,0,0,4.57,1.18,11.75,11.75,0,0,0,9.56-4.51,11,11,0,0,0,1.62-3,12.79,12.79,0,0,0,.74-3.6,14.64,14.64,0,0,0-2.37-8.74,20.79,20.79,0,0,0-7.3-6.82,24.32,24.32,0,0,0-18.86-2.17,25.08,25.08,0,0,0-8.39,4.44,23.91,23.91,0,0,0-6.25,7.53,6.81,6.81,0,0,0,1,.64,22.67,22.67,0,0,1,6-7.23,21.1,21.1,0,0,1,16.94-4.34,22.72,22.72,0,0,1,8.34,3.15,20.16,20.16,0,0,1,6.33,6.17,13.44,13.44,0,0,1,2.19,7.29,11.18,11.18,0,0,1-.42,3,9.5,9.5,0,0,1-1.13,2.58,9.38,9.38,0,0,1-4.53,3.67,9.23,9.23,0,0,1-3.46.65,8.36,8.36,0,0,1-4-1,6.21,6.21,0,0,1-2.91-3.12,3.61,3.61,0,0,1-.24-1.67,3.33,3.33,0,0,1,.35-1.24,4.44,4.44,0,0,1,.66-1,4.25,4.25,0,0,1,1-.86,7.63,7.63,0,0,1,2.39-.89,6.63,6.63,0,0,1,1.42-.07,2.33,2.33,0,0,0-1-1.31,3.57,3.57,0,0,0-1.72-.53,4.32,4.32,0,0,0-2.33.58,4.42,4.42,0,0,0-1.75,1.82,4.8,4.8,0,0,0-.5,1.8,7.25,7.25,0,0,0,.07,1.73,9.34,9.34,0,0,0,.53,2.06A7.33,7.33,0,0,0,363.31,351.06Z"/><path class="cls-5" d="M391.57,311.76a5,5,0,0,1,3.38-.38,6.83,6.83,0,0,1,2.68,1.29,7.62,7.62,0,0,1,2.63,4.23,8.35,8.35,0,0,1-.48,4.9,10.5,10.5,0,0,1-4.14,4.94,14.26,14.26,0,0,1-7.2,2,20.27,20.27,0,0,1-7.59-1.45c-.59-.22-1.17-.47-1.74-.74-9.05-4.21-12.91-10.6-26.74-6.76,14.06-1.62,18.6,4.29,25.85,8.29.61.34,1.24.66,1.89.95a21.48,21.48,0,0,0,8.32,2.07,15.34,15.34,0,0,0,8.58-2.23,13.32,13.32,0,0,0,1.84-1.41,12.19,12.19,0,0,0,1.42-1.59,12.06,12.06,0,0,0,1.73-3.3,10,10,0,0,0,.08-6.23,9.7,9.7,0,0,0-3.6-4.85,8.55,8.55,0,0,0-3.28-1.39,6.44,6.44,0,0,0-4.21.56,4.51,4.51,0,0,0-1.72,1.64,3.7,3.7,0,0,0-.54,2.38,4.48,4.48,0,0,0,.74,1.89,3.62,3.62,0,0,0,1.3,1.16,3,3,0,0,0,1.94.24,3.16,3.16,0,0,0,2.1-1.54,2.75,2.75,0,0,0,.33-1.48,2.51,2.51,0,0,0-.45-1.24,2.39,2.39,0,0,0-1.53-1,1.64,1.64,0,0,0-1.13.17,1.1,1.1,0,0,0-.37.35,2.18,2.18,0,0,1,.39.22,1.55,1.55,0,0,1,.46.54,1.68,1.68,0,0,1,.2.74.9.9,0,0,1-.16.46,1.65,1.65,0,0,1-.53.52,1.3,1.3,0,0,1-.65.22,1.25,1.25,0,0,1-.82-.29,1.71,1.71,0,0,1-.62-1.11A3,3,0,0,1,391.57,311.76Z"/><path class="cls-5" d="M361.38,314.53l-7.77-1.69a66.18,66.18,0,0,0-6.71-1.07,30,30,0,0,0-11.65.92,18.45,18.45,0,0,0-9.8,6.93,25.78,25.78,0,0,0-3.38,6.35,20.46,20.46,0,0,0-1.33,8.52,14.31,14.31,0,0,0,1.08,4.5,14.9,14.9,0,0,0,2.4,3.91,15.73,15.73,0,0,0,16.36,5.1,17.78,17.78,0,0,0,7.63-4.28,16.67,16.67,0,0,0,4.52-7.41,13.82,13.82,0,0,0,.53-4.34,12.92,12.92,0,0,0-.89-4.27,12.08,12.08,0,0,0-2.3-3.71,10.63,10.63,0,0,0-3.56-2.53,9.78,9.78,0,0,0-8.51.2,9.18,9.18,0,0,0-3.53,3.49,8,8,0,0,0-1,4.9,7.93,7.93,0,0,0,2.22,4.48,7.53,7.53,0,0,0,2,1.48c.18-.36.38-.71.58-1.06a6.78,6.78,0,0,1-3.6-5.06,7.48,7.48,0,0,1,3.94-7.17,8.44,8.44,0,0,1,7.42-.1,9.07,9.07,0,0,1,3.08,2.27,10.47,10.47,0,0,1,2,3.31,11.57,11.57,0,0,1,.7,3.81,12.2,12.2,0,0,1-.59,3.83,14.78,14.78,0,0,1-4.22,6.49,15.9,15.9,0,0,1-6.87,3.59,13.87,13.87,0,0,1-7.64-.28c-4.87-1.62-8.8-6.19-9.11-11.34a18.6,18.6,0,0,1,1.13-7.48,24.18,24.18,0,0,1,2.93-5.82,16.82,16.82,0,0,1,8.47-6.52,27.33,27.33,0,0,1,10.94-1.29,51.81,51.81,0,0,1,6.58.9c2.37.44,4.92,1,7.77,1.62a58.81,58.81,0,0,0,8.5,1.23,15,15,0,0,0,3.59-.17,7.18,7.18,0,0,0,2.79-1.09,5.54,5.54,0,0,0,2.1-2.47,4.6,4.6,0,0,0,.34-2.1,4.39,4.39,0,0,0-3.13-3.72,3.32,3.32,0,0,0-2.33.18,2.72,2.72,0,0,0-1.59,3.14,1.78,1.78,0,0,0,.88,1.05,1.69,1.69,0,0,0,.93.19,1,1,0,0,0,.79-.46.93.93,0,0,1-.71-.1.89.89,0,0,1-.48-.93,1.23,1.23,0,0,1,.33-.51,1.18,1.18,0,0,1,.65-.3,1.34,1.34,0,0,1,.79.11,2.36,2.36,0,0,1,.87.65,1.86,1.86,0,0,1,.49,1,2.39,2.39,0,0,1-.06,1,4.16,4.16,0,0,1-1.05,1.8c-1,1-2.54,1.65-5.14,1.53A59.24,59.24,0,0,1,361.38,314.53Z"/></g></g></svg>