<svg id="Calque_1" data-name="Calque 1" xmlns="http://www.w3.org/2000/svg" viewBox="0 0 822.05 595.28"><defs><style>.cls-1{fill:#f4e7d4;}.cls-2{fill:#e52627;}.cls-3{fill:#e41b21;}.cls-4,.cls-5{fill:#4e4443;}.cls-5{fill-rule:evenodd;}</style></defs><title>Plan de travail 1</title><path class="cls-1" d="M737.07,205.63v78.93l-.38,79a7,7,0,0,1-8.9,6.77l-1.8-.5c-2.49-.65-10-1.64-14.31,1.58-2.81,2.09-4.32,6.13-4.45,12l-.05,1.4a7,7,0,0,1-7,6.87H612.36V398a7,7,0,0,1-8.94,6.77l-1.8-.5c-4.45-1.19-17.58-3.19-24.37,2.07-3.55,2.74-5.28,7.73-5.14,14.79l0,1.44a7,7,0,0,1-7,7.17H511.88a93.87,93.87,0,0,1-22.23,19.5c-15.58,10.05-42.91,22.05-84.87,22.19h-.67c-41.8,0-69.27-12.05-85-22.14a95.71,95.71,0,0,1-22.45-19.55H243.46a7.07,7.07,0,0,1-7.06-7.17l0-1.44c.14-7.06-1.59-12.05-5.14-14.79-6.81-5.28-19.92-3.28-24.39-2.07l-1.75.52a7,7,0,0,1-8.95-6.79v-6.34H108.41a7,7,0,0,1-7.06-6.87l0-1.38c-.16-5.91-1.64-9.95-4.45-12-4.32-3.22-11.85-2.23-14.39-1.58l-1.75.5a7.06,7.06,0,0,1-8.9-6.77l-.38-78.93v-79a7,7,0,0,1,8.9-6.79l1.77.47c2.5.65,10,1.64,14.36-1.57,2.79-2.09,4.3-6.14,4.43-12l0-1.37a7,7,0,0,1,7-6.88h87.79v-6.33a7,7,0,0,1,2.79-5.62,7.1,7.1,0,0,1,6.15-1.17l1.8.49c4.45,1.22,17.58,3.22,24.36-2.06,3.56-2.75,5.29-7.71,5.15-14.77l0-1.44a7,7,0,0,1,2-5.08,7.06,7.06,0,0,1,5-2.11h53.07C305,127.73,334.59,97.68,403.7,97.68h1.19l.36,0c41,.09,68.33,12.07,84.06,22.09a99.63,99.63,0,0,1,22.84,19.58h53.33a7,7,0,0,1,5,2.11,7,7,0,0,1,2,5.08l0,1.42c-.13,7.08,1.6,12,5.15,14.81,6.81,5.26,19.93,3.26,24.4,2l1.76-.49a7,7,0,0,1,8.94,6.79v6.33h87.79a7.07,7.07,0,0,1,7.06,6.88l0,1.37c.13,5.89,1.64,9.94,4.45,12,4.29,3.21,11.78,2.24,14.34,1.57h0l1.73-.47a7,7,0,0,1,8.9,6.79Z"/><path class="cls-2" d="M174.92,271.26q.22,12.11-5.26,17t-19.43,4.91q-1.36,0-2.91-.06c-1,0-2.08-.09-3.14-.17l-15.55-1.14,3.78-27.77.22-35.54-2-21.26,12.68.57q18.06.46,24.23,4.8,6.28,4.13,6.4,16.92Zm-15.89-9-.11-20.8q0-1-.06-3c0-1.29-.11-2.59-.23-3.88s-.25-2.46-.4-3.49a4.55,4.55,0,0,0-.45-1.77q-1.6-1.38-6.52-1.72l-7.88-.34-.23,42.06,8.34-.12Q159,269.1,159,262.23Z"/><path class="cls-2" d="M197.2,268.74l4.23,23.66-24.23,1.26,5.15-26.17L183.49,228l-4.92-17.83,22.86-1.83-3.66,20.57Z"/><path class="cls-2" d="M250.45,224.52l-.34,20.8q-.35,13.94-16.68,15.08c-.23,0-1.72.23-4.46.69-1.37.15-2.46.28-3.26.4s-1.27.17-1.43.17L225,278l4.91,14.86-24,1.25,2.51-19.77.46-43L205,209.89l17.72-1.48a24.16,24.16,0,0,1,3.37-.23h3.25q11.08,0,16.23,3.77T250.45,224.52Zm-14,11.65a12.7,12.7,0,0,0-.52-3.19,20.41,20.41,0,0,0-1.37-3.72,17,17,0,0,0-1.88-3.08,2.78,2.78,0,0,0-2.06-1.32,9.93,9.93,0,0,0-2.4.34l-3.89.46.69,25h3.2a8.91,8.91,0,0,0,5.31-1.77,6.68,6.68,0,0,0,2.69-5.32Z"/><path class="cls-2" d="M320.56,279.59q.35,15.77-15.54,15.77a29.1,29.1,0,0,1-4-.29,30.34,30.34,0,0,1-3.77-.74,34.73,34.73,0,0,1-4-1.14L279,291.59l-1.48-21.94,17.14.91v2.63a6.82,6.82,0,0,0,.11,1.77c.08.11.19.33.35.63.61,1,1.75,1.48,3.43,1.48a16.47,16.47,0,0,0,5.37-.57c.91-.38,1.58-1.37,2-3a18.85,18.85,0,0,0,.63-4.68,14.51,14.51,0,0,0-.4-4.18,6.49,6.49,0,0,0-1.2-2,7.93,7.93,0,0,0-4.35-1.89c-2-.34-4.84-.86-8.57-1.54a15.17,15.17,0,0,1-4.74-1.72,16.51,16.51,0,0,1-4.8-4,20.9,20.9,0,0,1-3.66-6.68,27.83,27.83,0,0,1-1.31-9.77l-.12-10.4a13.42,13.42,0,0,1,4.69-11,18.22,18.22,0,0,1,11.89-4c1.67,0,3.37.07,5.08.23s3.26.3,4.63.45l4.68.69,10.4.11L318.5,234l-9.71-3.43-.11-1.83c0-.68-.54-1.25-1.6-1.71a11.09,11.09,0,0,0-3.77-.8,17.78,17.78,0,0,0-4.4.34,6.11,6.11,0,0,0-3.38,1.72,4.61,4.61,0,0,0-.45,1.37,17.37,17.37,0,0,0-.35,2.34c-.07.88-.13,1.77-.17,2.69s-.05,1.64-.05,2.17q0,2.4.57,2.91a9.29,9.29,0,0,0,1.83,1.2,15.89,15.89,0,0,0,1.94.52q1.71.39,5,1.08c1.29.23,2.57.44,3.83.63s2.53.4,3.82.63a7,7,0,0,1,3.6,2.51c1,1.3,1.85,2.4,2.46,3.32q2.52,3.66,2.74,11.31Z"/><path class="cls-2" d="M356.19,294.43l.64-15.78,1.78-.16L357,253.77l-7.81,19.81-13.45-16.51v21.82l2.18.24,3.3,16.5-16.83-.4,1.13-15.94.56-28.34-2-16h8.53l14.74,19.89,6.36-19.89,17.71.16-1.53,16.59.4,27.29,2.58,16.66Z"/><path class="cls-2" d="M406.27,282.35q.08,7.72-3.31,11.27a7.09,7.09,0,0,1-4.74,2.05,63.93,63.93,0,0,1-7,0,62.84,62.84,0,0,1-7.77-.52,6.5,6.5,0,0,1-4.63-2.61q-2.49-3.46-2.49-11.84l-.08-30.43q0-7.32,2.89-10.63a6.77,6.77,0,0,1,4.39-2.21q2.78-.36,6.89-.53,4.66-.24,7.81-.24a6.33,6.33,0,0,1,4.82,1.77q2.74,3.08,2.82,11.36Zm-8.14-29.63c0-.48-.49-.95-1.48-1.4a10.58,10.58,0,0,0-3.35-.89,8.55,8.55,0,0,0-3.42.28,1.93,1.93,0,0,0-1.57,1.93L388,274.7c0,2.26.38,3.87,1.13,4.83q.24.41,1.41.57a16.56,16.56,0,0,0,2.49.12,23.66,23.66,0,0,0,2.42-.2,2.2,2.2,0,0,0,1.33-.49c.59-.69.93-2.2,1-4.51Z"/><path class="cls-2" d="M443.7,251.68l-10.31,10.87L445,280l5,16.26-13.61-.08-5-16.43-5.31-8.29-1.21,8.78-.48,15.21H410l2.41-17.63-.24-30.27-.88-11.51H426l-1.53,13.12.4,6L435.25,247l.88-10.95h13.53Z"/><path class="cls-2" d="M486.29,251.84l-7.25.24.16-3.14H465.84v10.22l7.33-.24L472.84,269l-7-.41V285l11,.16-.08-8.45,10-.49-.4,19.24-33,.73,1.53-14.57.73-27.94-3.47-17.95,34.7-1.45Z"/><path class="cls-2" d="M527.67,250.63l.48,32.77,1,12.39-14.74-.56,1-10.87,2.17-1V270l-12-.48.24,12,1.77,2.74v11.11l-14.49.48,2-14.41L493.94,251l-3.06-15.53,18-.65-1.85,13-1.13.17.4,11.75,9.58.72.41-9.42-1.05-1.69-2-14.49,16.66.89Z"/><path class="cls-2" d="M563.41,282.35c.05,5.15-1,8.91-3.3,11.27a7.12,7.12,0,0,1-4.75,2.05,63.74,63.74,0,0,1-7,0,62.55,62.55,0,0,1-7.77-.52,6.48,6.48,0,0,1-4.63-2.61q-2.49-3.46-2.5-11.84l-.08-30.43q0-7.32,2.9-10.63a6.74,6.74,0,0,1,4.39-2.21q2.77-.36,6.88-.53c3.11-.16,5.72-.24,7.81-.24a6.37,6.37,0,0,1,4.83,1.77q2.74,3.08,2.82,11.36Zm-8.13-29.63c0-.48-.5-.95-1.49-1.4a10.52,10.52,0,0,0-3.34-.89,8.54,8.54,0,0,0-3.42.28,1.92,1.92,0,0,0-1.57,1.93l-.32,22.06c0,2.26.37,3.87,1.12,4.83.17.27.63.46,1.41.57a16.69,16.69,0,0,0,2.5.12,23.45,23.45,0,0,0,2.41-.2c.73-.11,1.17-.27,1.33-.49.59-.69.94-2.2,1.05-4.51Z"/><path class="cls-2" d="M600,239l-1.12,9.34,1,32.36q.24,7.17-3.14,10.79t-11,4a26.47,26.47,0,0,1-4.18,0,37.75,37.75,0,0,1-4.43-.56,23.78,23.78,0,0,1-3.91-1.05,6.26,6.26,0,0,1-2.53-1.53q-3-3.37-3-10.78l-.24-28.83L567,240.33l12.31.16-.64,10.62-1.85,2.74,1,20.85a3.55,3.55,0,0,0,1,2.34,9.21,9.21,0,0,0,2.17,1.65,10.64,10.64,0,0,0,2.54,1,8.81,8.81,0,0,0,2.09.33c3.33,0,5-1.51,5-4.51l-.32-26.33L588,248.06l-1-9.67Z"/><path class="cls-2" d="M634.18,284.28q.24,11.12-10.95,11.11a19.59,19.59,0,0,1-2.82-.2,22.41,22.41,0,0,1-2.66-.52,23.87,23.87,0,0,1-2.81-.81l-10.07-1.12-1-15.46,12.07.64v1.85A4.71,4.71,0,0,0,616,281a4.37,4.37,0,0,1,.24.44,2.61,2.61,0,0,0,2.42,1.05,11.47,11.47,0,0,0,3.78-.4,2.83,2.83,0,0,0,1.41-2.09,12.81,12.81,0,0,0,.44-3.3,9.94,9.94,0,0,0-.28-2.94,4.63,4.63,0,0,0-.84-1.41,5.59,5.59,0,0,0-3.06-1.33q-2.1-.36-6-1.09a10.85,10.85,0,0,1-3.34-1.2,11.74,11.74,0,0,1-3.38-2.82,14.86,14.86,0,0,1-2.58-4.71,19.53,19.53,0,0,1-.92-6.89l-.08-7.32a9.41,9.41,0,0,1,3.3-7.73,12.8,12.8,0,0,1,8.37-2.82c1.18,0,2.37.06,3.58.16l3.26.32,3.3.49,7.33.08-.16,14.65-6.85-2.41-.08-1.29c0-.48-.37-.89-1.12-1.21a7.79,7.79,0,0,0-2.66-.56,11.69,11.69,0,0,0-3.1.24,4.19,4.19,0,0,0-2.37,1.21,3.16,3.16,0,0,0-.33,1,13.56,13.56,0,0,0-.24,1.65q-.08.93-.12,1.89c0,.65,0,1.16,0,1.53,0,1.13.13,1.81.4,2.06a7.19,7.19,0,0,0,1.29.84,9.75,9.75,0,0,0,1.37.36c.81.19,2,.45,3.54.77.92.16,1.81.31,2.7.44s1.78.28,2.7.44a4.88,4.88,0,0,1,2.53,1.78c.73.91,1.3,1.69,1.73,2.33,1.18,1.72,1.83,4.37,1.94,8Z"/><path class="cls-2" d="M670.81,251.84l-7.25.24.16-3.14H650.36v10.22l7.32-.24L657.36,269l-7-.41V285l10.95.16-.08-8.45,10-.49-.4,19.24-33,.73,1.53-14.57.72-27.94-3.46-17.95,34.7-1.45Z"/><path class="cls-2" d="M295.54,363.49l-1.89-17.56h-6.93L285,363l-11.64.54.61-9.76h2.55L281,323.59h-2.82L277.77,313h23.28l-.13,11.57h-2.83l4.58,29.4h2.49l.81,10.1Zm-4.24-37.81-2.83.13-.54,11.57h4.85Z"/><path class="cls-2" d="M328.29,363l.38-9.29,1-.1-.95-14.55-4.6,11.66L316.25,341v12.85l1.28.14,1.94,9.72-9.9-.24.66-9.38.33-16.69L309.38,328h5l8.68,11.71L326.82,328l10.43.09-.9,9.77.23,16.07,1.52,9.81Z"/><path class="cls-2" d="M359.67,337.93l-4.27.15.1-1.85h-7.87v6l4.31-.15-.19,5.93-4.12-.24v9.67l6.44.1,0-5,5.87-.28-.23,11.32-19.44.43.9-8.58.43-16.45-2-10.57L360,327.6Z"/><path class="cls-2" d="M385.17,355.57a27.74,27.74,0,0,1-.29,4.12,6.86,6.86,0,0,1-.8,2.65c-.73,1-2.17,1.52-4.32,1.52A4.22,4.22,0,0,1,376,362a8.21,8.21,0,0,1-1.23-4.67c0-.95,0-2,.14-3.08.06-.54.11-1,.14-1.47s.05-.84.05-1.19q0-3.31-2.75-3l-2.37.24.24,8.15.57,1.85.66,5.5-8.67-.15,1.13-7.34L363.46,339l-1.09-10.43,7.39-.1a38.64,38.64,0,0,1,5.12.12,9.25,9.25,0,0,1,3.08.83,4.16,4.16,0,0,1,1.35,1.23,8.65,8.65,0,0,1,1.09,2,13.92,13.92,0,0,1,.71,2.3,8.39,8.39,0,0,1,.22,2.23l-.24,3.51A5,5,0,0,1,380,344c-.28.26-.56.49-.83.71a3.12,3.12,0,0,1-1.2.57c-.16,0-.25.08-.27.15s.06.11.22.14a2.49,2.49,0,0,1,2,1.47,9.92,9.92,0,0,1,.59,3.31c0,.16,0,.36,0,.6s0,.5-.07.78a4.35,4.35,0,0,1-.17.59c-.08.24-.15.48-.23.71s-.15.45-.22.64a2.13,2.13,0,0,0-.09.33,2.81,2.81,0,0,0,.17.91,1,1,0,0,0,.73.66,1.63,1.63,0,0,0,.62,0A1.85,1.85,0,0,0,382,355a2,2,0,0,0,.56-1,3.72,3.72,0,0,0-.11-1.8,2.74,2.74,0,0,1,1.32.52,3.75,3.75,0,0,1,.95,1A3.24,3.24,0,0,1,385.17,355.57Zm-10.29-16.4a6,6,0,0,0-.05-.76c0-.32-.07-.65-.11-1a5.1,5.1,0,0,0-.22-1,1.07,1.07,0,0,0-.33-.56,8.72,8.72,0,0,1-.83-.86,1.2,1.2,0,0,0-1-.47l-2.79.19.28,8.1,2.42,0a3.4,3.4,0,0,0,1.94-.38c.32-.22.52-.82.62-1.8Z"/><path class="cls-2" d="M395.41,353.48l1.75,9.81-10.05.52L389.24,353l.48-16.4-2-7.4,9.48-.75-1.52,8.53Z"/><path class="cls-2" d="M417,329.69l.38,14.22-7.68-.24.24-3.7c0-.19,0-.37,0-.54a4.46,4.46,0,0,0,0-.5c0-1.77-.75-2.66-2.23-2.66-1.64,0-2.39,1.24-2.23,3.7l.48,12.85a7.07,7.07,0,0,0,.52,2.79,1.76,1.76,0,0,0,.66.74,1.6,1.6,0,0,0,1.09.16,1.87,1.87,0,0,0,1.16-.49,4.46,4.46,0,0,0,.86-1.09,6.53,6.53,0,0,0,.56-1.45,10.13,10.13,0,0,0,.31-1.66,26.38,26.38,0,0,0,.14-4.36l6.5-.24-.62,7.82c-.28,3-1.06,5.2-2.32,6.5s-3.53,2.12-6.49,2.18c-3.23,0-5.5-.7-6.83-2.09s-1.94-3.55-2-6.59l-.38-16.35c-.09-2.94.35-5.13,1.33-6.59s2.62-2.13,4.93-2.13h1.75a4.72,4.72,0,0,1,.86,0,1.31,1.31,0,0,0,.73,0,4.94,4.94,0,0,0,.74-.26,7.06,7.06,0,0,0,.75-.42Z"/><path class="cls-2" d="M434.84,363.53l-1.33-12.37h-4.88l-1.23,12-8.2.38.43-6.88h1.8l3.17-21.28h-2l-.28-7.44h16.4l-.1,8.15h-2l3.23,20.72h1.75l.57,7.11Zm-3-26.64-2,.1-.38,8.15h3.42Z"/><path class="cls-2" d="M467.07,337.65l0,24.84-8.68-.81-7.3-22.32v15.83l.86.14,1.18,8.39h-8.48l.85-8.86-.14-17.21-.71-9.48,9.24.33,8.34,22.33-.52-12.8-.71-1.19-.19-7.82h7.49Z"/><path class="cls-2" d="M503.85,357.37q0,3.88-3,5.16-2.37,1.05-9,1.05H484l.9-9,.29-17.3-.85-8.77h9q10.53,0,10.52,7.21v8c0,2.3-1.48,3.68-4.45,4.12a6.71,6.71,0,0,1,3.22,1.19,4,4,0,0,1,1.23,3.17Zm-7.06-17.92v-.71a4.24,4.24,0,0,0-.42-2.18,2,2,0,0,0-1.76-.66,3.7,3.7,0,0,0-.47,0c-.16,0-.33,0-.52.07l-3.65.43-.05,5.78,3.7-.05a5.2,5.2,0,0,0,2.51-.47C496.57,341.39,496.79,340.65,496.79,339.45Zm-.9,14.32v-2.56c0-.89-.17-1.46-.52-1.71a3.8,3.8,0,0,0-2-.38h-3.27l.05,6.78h3.22a3.5,3.5,0,0,0,2.09-.38A2.41,2.41,0,0,0,495.89,353.77Z"/><path class="cls-2" d="M526.13,357.37q0,3.88-3,5.16-2.37,1.05-9,1.05h-7.82l.9-9,.29-17.3-.86-8.77h9q10.51,0,10.52,7.21v8c0,2.3-1.48,3.68-4.45,4.12A6.75,6.75,0,0,1,524.9,349a4,4,0,0,1,1.23,3.17Zm-7.06-17.92v-.71a4.13,4.13,0,0,0-.43-2.18,1.94,1.94,0,0,0-1.75-.66,3.85,3.85,0,0,0-.48,0c-.15,0-.33,0-.52.07l-3.65.43,0,5.78,3.69-.05a5.22,5.22,0,0,0,2.52-.47C518.85,341.39,519.07,340.65,519.07,339.45Zm-.9,14.32v-2.56c0-.89-.17-1.46-.52-1.71a3.8,3.8,0,0,0-2-.38h-3.27l0,6.78h3.22a3.44,3.44,0,0,0,2.08-.38A2.36,2.36,0,0,0,518.17,353.77Z"/><path class="cls-2" d="M549.36,361.4a2.24,2.24,0,0,0,.92.28,2.77,2.77,0,0,0,.92-.05,9.76,9.76,0,0,0,1-.23,10.55,10.55,0,0,1-.57,1.56,6.15,6.15,0,0,1-.73,1.26,4,4,0,0,1-1,.92,1.09,1.09,0,0,1-.81.1,6.44,6.44,0,0,1-1-.29,13.48,13.48,0,0,1-1.28-.47l-1.76-2a4.64,4.64,0,0,1-4.36,2.09l-1.7,0a22.77,22.77,0,0,1-3-.17,14.49,14.49,0,0,1-3.06-.68,3.18,3.18,0,0,1-2-1.59c-.35-.82-.72-1.72-1.12-2.68a9.2,9.2,0,0,1-.54-3.63l.23-18.86q.11-4.69,1.9-6.64a2.8,2.8,0,0,1,1.35-.54,18.94,18.94,0,0,1,2.42-.33c.93-.08,1.92-.12,3-.12s2,0,3,.09a18.07,18.07,0,0,1,2.44.33,3,3,0,0,1,1.38.57q2,2.13,2,6.69l-.24,19.15c0,.28,0,.47,0,.56a1.38,1.38,0,0,1-.07.26,2.86,2.86,0,0,1-.12.27,3,3,0,0,0-.17.56c.32.35.63.73.95,1.14l.9,1.14.74.9A1.35,1.35,0,0,0,549.36,361.4ZM538,354.33l-.95-1.13-.28-2.09,1.61-1.33,2.37,2.47.14-.1a1.82,1.82,0,0,1,.33-.38c.06,0,.1-.25.1-.66l-.19-9.81a5.33,5.33,0,0,0-.52-2.66c-.29-.38-1.14-.66-2.56-.85a2.12,2.12,0,0,0-2.09.85,2.75,2.75,0,0,0-.52,1.19,8.16,8.16,0,0,0-.14,1.66l.19,9.67q0,3.36,2.46,3.17Z"/><path class="cls-3" d="M242.71,338.16a1.27,1.27,0,0,0-1.22.95l-10.08-2.6-5.59-8.78a1.27,1.27,0,1,0-1.36,0l-5.59,8.78-10.08,2.6a1.27,1.27,0,1,0-1.22,1.59,1.2,1.2,0,0,0,.8-.3l6.63,8-.64,10.39h-.08a1.27,1.27,0,1,0,1.27,1.27,1.45,1.45,0,0,0-.09-.47l9.68-3.81,9.68,3.81a1.45,1.45,0,0,0-.09.47,1.27,1.27,0,1,0,1.27-1.27h-.08l-.63-10.39,6.62-8a1.22,1.22,0,0,0,.8.3,1.27,1.27,0,0,0,0-2.54Z"/><path class="cls-3" d="M612.14,338.16a1.29,1.29,0,0,0-1.23.95l-10.07-2.6-5.59-8.78a1.27,1.27,0,1,0-2-1.07,1.25,1.25,0,0,0,.59,1.07l-5.59,8.78-10.08,2.6a1.28,1.28,0,0,0-1.23-.95,1.27,1.27,0,0,0,0,2.54,1.23,1.23,0,0,0,.81-.3l6.62,8-.64,10.39h-.08a1.27,1.27,0,1,0,1.27,1.27,1.23,1.23,0,0,0-.09-.47l9.69-3.81,9.68,3.81a1.23,1.23,0,0,0-.09.47,1.27,1.27,0,1,0,1.27-1.27h-.08l-.64-10.39,6.62-8a1.23,1.23,0,0,0,.81.3,1.27,1.27,0,0,0,0-2.54Z"/><path class="cls-4" d="M743.78,197.6a7.28,7.28,0,0,0-6.31-1.22l-1.78.48h-.05c-2.64.7-10.33,1.69-14.75-1.61-2.89-2.15-4.44-6.32-4.58-12.37l0-1.41a7.27,7.27,0,0,0-7.26-7.08H618.72v-6.52a7.23,7.23,0,0,0-9.2-7l-1.8.51c-4.6,1.25-18.1,3.31-25.11-2.1-3.65-2.85-5.43-8-5.29-15.24l0-1.46a7.13,7.13,0,0,0-2.06-5.22,7.26,7.26,0,0,0-5.18-2.18H515.24a102.31,102.31,0,0,0-23.49-20.13c-16.18-10.31-44.32-22.64-86.47-22.73l-.37,0h-1.22c-71.1,0-101.54,30.91-110.68,42.88H238.43a7.24,7.24,0,0,0-7.24,7.4l0,1.48c.14,7.26-1.64,12.37-5.29,15.19-7,5.44-20.48,3.38-25.06,2.13l-1.85-.51a7.23,7.23,0,0,0-9.2,7v6.52H99.5a7.24,7.24,0,0,0-7.23,7.08l0,1.41c-.14,6.05-1.69,10.22-4.56,12.37-4.46,3.3-12.2,2.29-14.77,1.61l-1.83-.48a7.22,7.22,0,0,0-9.15,7V284.6l.39,81.2a7.36,7.36,0,0,0,2.87,5.73,7.26,7.26,0,0,0,6.29,1.23l1.8-.51c2.61-.67,10.36-1.69,14.8,1.62,2.89,2.15,4.41,6.31,4.58,12.39l0,1.41a7.25,7.25,0,0,0,7.26,7.08h90.3v6.52a7.25,7.25,0,0,0,9.21,7l1.8-.53c4.6-1.25,18.08-3.31,25.08,2.12,3.66,2.82,5.44,8,5.3,15.22l0,1.48a7.2,7.2,0,0,0,2.09,5.2,7.13,7.13,0,0,0,5.17,2.17h54.77A97.91,97.91,0,0,0,316.71,454c16.14,10.39,44.39,22.78,87.39,22.78h.7c43.16-.14,71.28-12.49,87.3-22.82A95.88,95.88,0,0,0,515,433.91h54.75a7.2,7.2,0,0,0,5.18-2.17,7.3,7.3,0,0,0,2.06-5.2l0-1.48c-.14-7.26,1.65-12.4,5.3-15.22,7-5.41,20.48-3.35,25.06-2.12l1.85.5a7.24,7.24,0,0,0,9.2-7v-6.52h90.31a7.24,7.24,0,0,0,7.23-7.08l0-1.43c.14-6.06,1.69-10.22,4.58-12.37,4.44-3.31,12.16-2.29,14.72-1.62l1.85.51a7.27,7.27,0,0,0,9.16-7l.39-81.24v-81.2A7.25,7.25,0,0,0,743.78,197.6ZM236.56,173.05c6.26-4.85,10.1-11.7,11.49-20.46h50.37a7.31,7.31,0,0,0,6.36-3.72l.37-.7c.05-.09,5.53-9.38,19.56-18.61,11.31-7.42,36.62-19.83,79.51-19.83h.62c38.08,0,63.12,10.84,77.43,19.93,14.82,9.43,21.39,19,21.41,19l.44.65a7.26,7.26,0,0,0,6.06,3.26h50.31c1.38,8.76,5.22,15.61,11.49,20.46a31.1,31.1,0,0,0,6.15,3.68H230.41A30.81,30.81,0,0,0,236.56,173.05Zm335,223c-6.26,4.83-10.1,11.7-11.49,20.43H509.74a7.31,7.31,0,0,0-6.18,3.45l-.37.62c-.06.1-6.17,9.53-20.69,18.87-14.15,9.09-39.23,20-78.42,20-38.63,0-63.65-10.84-77.82-19.93-14.61-9.36-20.9-18.84-20.92-18.91l-.44-.67a7.23,7.23,0,0,0-6.13-3.38H248.44c-1.37-8.73-5.23-15.6-11.49-20.43a30.81,30.81,0,0,0-8-4.49H579.63A31.46,31.46,0,0,0,571.58,396.09ZM729.24,284.53l-.37,69.64c-5.69.05-12.72,1.27-18.75,5.73-5.48,4.07-9,9.92-10.64,17.44H623.76a7,7,0,0,0-1.73-.23H192a7.16,7.16,0,0,0-1.74.23H109.07c-1.59-7.52-5.18-13.37-10.65-17.44-6-4.48-13.07-5.68-18.75-5.73l-.35-69.61V214.94c5.66,0,12.69-1.27,18.7-5.73,5.48-4.07,9-9.92,10.64-17.43H200a7.17,7.17,0,0,0,2.82-.56h403a7.17,7.17,0,0,0,2.82.56h91.3c1.6,7.51,5.16,13.36,10.64,17.43,6,4.46,13,5.69,18.73,5.73Z"/><path class="cls-5" d="M372.47,124.39a10.25,10.25,0,0,0-4.57-1.18,11.35,11.35,0,0,0-11.18,7.51,12.44,12.44,0,0,0-.73,3.6,14.61,14.61,0,0,0,2.36,8.74,20.9,20.9,0,0,0,7.3,6.83,24,24,0,0,0,9.3,3,23.59,23.59,0,0,0,9.57-.84,25.1,25.1,0,0,0,8.38-4.43,23.86,23.86,0,0,0,6.26-7.54,8.42,8.42,0,0,0-1-.64,22.58,22.58,0,0,1-6,7.23A21.18,21.18,0,0,1,375.21,151a22.67,22.67,0,0,1-8.34-3.16,20.19,20.19,0,0,1-6.34-6.17,13.33,13.33,0,0,1-2.18-7.28,11.21,11.21,0,0,1,.41-3,9.2,9.2,0,0,1,5.66-6.24,9.43,9.43,0,0,1,3.46-.66,8.47,8.47,0,0,1,4,1,6.17,6.17,0,0,1,2.92,3.11,3.58,3.58,0,0,1-.11,2.91,4.37,4.37,0,0,1-1.71,1.84,7.59,7.59,0,0,1-2.38.89,7,7,0,0,1-1.43.08,2.35,2.35,0,0,0,1.06,1.31,3.49,3.49,0,0,0,1.71.52,4.25,4.25,0,0,0,2.34-.57,4.51,4.51,0,0,0,1.75-1.83,4.75,4.75,0,0,0,.5-1.79,7.9,7.9,0,0,0-.07-1.74,9.21,9.21,0,0,0-.54-2.05A7.39,7.39,0,0,0,372.47,124.39Z"/><path class="cls-5" d="M344.22,163.69a5,5,0,0,1-3.39.38,6.53,6.53,0,0,1-2.67-1.29,7.64,7.64,0,0,1-2.64-4.22,8.47,8.47,0,0,1,.48-4.91,10.49,10.49,0,0,1,4.15-4.93,14.07,14.07,0,0,1,7.2-2,20.27,20.27,0,0,1,7.59,1.45c.59.22,1.17.47,1.74.73,9.05,4.21,12.91,10.61,26.74,6.77-14.07,1.61-18.61-4.29-25.86-8.3-.61-.34-1.24-.66-1.89-1a21.47,21.47,0,0,0-8.31-2.06,15.36,15.36,0,0,0-8.59,2.22,13.37,13.37,0,0,0-1.84,1.42,12.9,12.9,0,0,0-1.42,1.58,12.11,12.11,0,0,0-1.73,3.31,10,10,0,0,0-.08,6.22,9.67,9.67,0,0,0,3.61,4.85,8.65,8.65,0,0,0,3.28,1.4,6.54,6.54,0,0,0,4.2-.56,4.49,4.49,0,0,0,1.73-1.65,3.74,3.74,0,0,0,.53-2.38,4.28,4.28,0,0,0-.74-1.89,3.43,3.43,0,0,0-1.3-1.15,2.92,2.92,0,0,0-1.94-.24A3.09,3.09,0,0,0,341,159a2.61,2.61,0,0,0-.33,1.49,2.51,2.51,0,0,0,.44,1.23,2.37,2.37,0,0,0,1.53,1,1.71,1.71,0,0,0,1.13-.16,1.18,1.18,0,0,0,.38-.35,2.17,2.17,0,0,1-.4-.22,1.62,1.62,0,0,1-.45-.54,1.55,1.55,0,0,1-.2-.74c0-.26.07-.28.15-.46a1.55,1.55,0,0,1,.53-.52,1.34,1.34,0,0,1,.65-.23,1.24,1.24,0,0,1,.83.3,1.72,1.72,0,0,1,.61,1.11A3,3,0,0,1,344.22,163.69Z"/><path class="cls-5" d="M374.41,160.92l7.77,1.69a60.63,60.63,0,0,0,6.71,1.07,30.06,30.06,0,0,0,11.65-.91,18.57,18.57,0,0,0,9.79-6.94,25.23,25.23,0,0,0,3.38-6.34,20.5,20.5,0,0,0,1.34-8.53,14.66,14.66,0,0,0-1.08-4.5,15.1,15.1,0,0,0-2.41-3.91,16.22,16.22,0,0,0-7.47-5,16,16,0,0,0-8.89-.1,17.68,17.68,0,0,0-7.63,4.28,16.59,16.59,0,0,0-4.51,7.41,14.09,14.09,0,0,0-.54,4.34,13,13,0,0,0,.9,4.27,11.85,11.85,0,0,0,2.3,3.7,10.3,10.3,0,0,0,3.56,2.53,9.79,9.79,0,0,0,8.5-.19,9.07,9.07,0,0,0,3.53-3.5,7.66,7.66,0,0,0-1.18-9.38,8.11,8.11,0,0,0-2-1.48c-.19.36-.38.71-.59,1.06a6.78,6.78,0,0,1,3.6,5.06,7.46,7.46,0,0,1-3.94,7.18,8.39,8.39,0,0,1-7.41.09,9,9,0,0,1-3.08-2.26,10.41,10.41,0,0,1-2-3.32,11,11,0,0,1-.7-3.8,12.6,12.6,0,0,1,.58-3.84,14.8,14.8,0,0,1,4.23-6.48,15.68,15.68,0,0,1,6.87-3.59,13.83,13.83,0,0,1,7.63.27c4.87,1.63,8.8,6.2,9.12,11.35a18.8,18.8,0,0,1-1.14,7.48,24.11,24.11,0,0,1-2.93,5.81,16.82,16.82,0,0,1-8.47,6.52,27.32,27.32,0,0,1-10.94,1.3,56,56,0,0,1-6.58-.9c-2.36-.45-4.92-1-7.77-1.63a60,60,0,0,0-8.5-1.23,15.5,15.5,0,0,0-3.58.17,7.45,7.45,0,0,0-2.8,1.09,5.61,5.61,0,0,0-2.09,2.48,4.43,4.43,0,0,0-.34,2.09,4.21,4.21,0,0,0,1.05,2.41,4.32,4.32,0,0,0,2.08,1.31,3.35,3.35,0,0,0,2.32-.17,2.71,2.71,0,0,0,1.6-3.14,1.76,1.76,0,0,0-.89-1.06,1.64,1.64,0,0,0-.92-.18,1,1,0,0,0-.8.45,1,1,0,0,1,.72.11.88.88,0,0,1,.47.93,1,1,0,0,1-.33.5,1.16,1.16,0,0,1-.65.31,1.45,1.45,0,0,1-.79-.12,2.3,2.3,0,0,1-.87-.64,2,2,0,0,1-.49-1,2.6,2.6,0,0,1,.06-1,4.07,4.07,0,0,1,1.05-1.79c1-1,2.54-1.66,5.14-1.53A59.35,59.35,0,0,1,374.41,160.92Z"/><path class="cls-5" d="M425.22,124.39a10.32,10.32,0,0,1,4.57-1.18,11.84,11.84,0,0,1,9.56,4.51,11,11,0,0,1,1.62,3,12.79,12.79,0,0,1,.74,3.6,14.69,14.69,0,0,1-2.37,8.74,20.82,20.82,0,0,1-7.3,6.83,23.92,23.92,0,0,1-9.3,3,23.52,23.52,0,0,1-9.56-.84,25.05,25.05,0,0,1-8.39-4.43,23.7,23.7,0,0,1-6.25-7.54,7.72,7.72,0,0,1,1-.64,22.46,22.46,0,0,0,6,7.23A21.15,21.15,0,0,0,422.48,151a22.72,22.72,0,0,0,8.35-3.16,20.06,20.06,0,0,0,6.33-6.17,13.44,13.44,0,0,0,2.19-7.28,11.2,11.2,0,0,0-.42-3,9.2,9.2,0,0,0-5.66-6.24,9.43,9.43,0,0,0-3.46-.66,8.5,8.5,0,0,0-4,1,6.15,6.15,0,0,0-2.91,3.11,3.64,3.64,0,0,0-.24,1.68,3.23,3.23,0,0,0,.35,1.23,4.25,4.25,0,0,0,1.7,1.84,7.54,7.54,0,0,0,2.39.89,6.89,6.89,0,0,0,1.42.08,2.36,2.36,0,0,1-1.05,1.31,3.57,3.57,0,0,1-1.72.52,4.22,4.22,0,0,1-2.33-.57,4.44,4.44,0,0,1-1.75-1.83,4.75,4.75,0,0,1-.5-1.79,7.33,7.33,0,0,1,.07-1.74,9.14,9.14,0,0,1,.53-2.05A7.39,7.39,0,0,1,425.22,124.39Z"/><path class="cls-5" d="M453.48,163.69a5,5,0,0,0,3.38.38,6.57,6.57,0,0,0,2.68-1.29,7.62,7.62,0,0,0,2.63-4.22,8.39,8.39,0,0,0-.48-4.91,10.52,10.52,0,0,0-4.14-4.93,14.07,14.07,0,0,0-7.2-2,20.23,20.23,0,0,0-7.59,1.45c-.59.22-1.17.47-1.74.73-9,4.21-12.91,10.61-26.74,6.77,14.06,1.61,18.6-4.29,25.85-8.3.61-.34,1.24-.66,1.89-1a21.48,21.48,0,0,1,8.32-2.06,15.33,15.33,0,0,1,8.58,2.22,13.37,13.37,0,0,1,1.84,1.42,12.9,12.9,0,0,1,1.42,1.58,12.11,12.11,0,0,1,1.73,3.31,10,10,0,0,1,.08,6.22,9.65,9.65,0,0,1-3.6,4.85,8.7,8.7,0,0,1-3.29,1.4,6.55,6.55,0,0,1-4.2-.56,4.47,4.47,0,0,1-1.72-1.65,3.68,3.68,0,0,1-.54-2.38,4.41,4.41,0,0,1,.74-1.89,3.59,3.59,0,0,1,1.3-1.15,2.92,2.92,0,0,1,1.94-.24,3.11,3.11,0,0,1,2.1,1.53,2.78,2.78,0,0,1,.33,1.49,2.51,2.51,0,0,1-.45,1.23,2.35,2.35,0,0,1-1.53,1,1.71,1.71,0,0,1-1.13-.16,1.1,1.1,0,0,1-.37-.35A2.18,2.18,0,0,0,454,162a1.65,1.65,0,0,0,.46-.54,1.68,1.68,0,0,0,.2-.74c0-.26-.08-.28-.16-.46a1.55,1.55,0,0,0-.53-.52,1.31,1.31,0,0,0-.65-.23,1.25,1.25,0,0,0-.83.3,1.72,1.72,0,0,0-.61,1.11A2.94,2.94,0,0,0,453.48,163.69Z"/><path class="cls-5" d="M423.29,160.92l-7.77,1.69a61,61,0,0,1-6.71,1.07,30,30,0,0,1-11.65-.91,18.54,18.54,0,0,1-9.8-6.94,25.55,25.55,0,0,1-3.38-6.34,20.51,20.51,0,0,1-1.33-8.53,14.38,14.38,0,0,1,1.08-4.5,15.07,15.07,0,0,1,2.4-3.91,16.2,16.2,0,0,1,7.48-5,16,16,0,0,1,8.88-.1,17.68,17.68,0,0,1,7.63,4.28,16.51,16.51,0,0,1,4.51,7.41,13.79,13.79,0,0,1,.54,4.34,13,13,0,0,1-.89,4.27,12,12,0,0,1-2.3,3.7,10.49,10.49,0,0,1-3.56,2.53,9.81,9.81,0,0,1-8.51-.19,9.2,9.2,0,0,1-3.53-3.5,7.64,7.64,0,0,1,1.19-9.38,7.75,7.75,0,0,1,2-1.48c.18.36.38.71.58,1.06a6.8,6.8,0,0,0-3.6,5.06,7.48,7.48,0,0,0,3.94,7.18,8.41,8.41,0,0,0,7.42.09,9,9,0,0,0,3.08-2.26,10.41,10.41,0,0,0,2-3.32,11.46,11.46,0,0,0,.7-3.8,12.31,12.31,0,0,0-.59-3.84,14.69,14.69,0,0,0-4.22-6.48,15.79,15.79,0,0,0-6.87-3.59,13.87,13.87,0,0,0-7.64.27c-4.87,1.63-8.8,6.2-9.11,11.35a18.62,18.62,0,0,0,1.13,7.48,24.11,24.11,0,0,0,2.93,5.81,16.82,16.82,0,0,0,8.47,6.52,27.32,27.32,0,0,0,10.94,1.3,55.7,55.7,0,0,0,6.58-.9c2.36-.45,4.92-1,7.77-1.63a60.23,60.23,0,0,1,8.5-1.23,15.56,15.56,0,0,1,3.59.17,7.4,7.4,0,0,1,2.79,1.09,5.62,5.62,0,0,1,2.1,2.48,4.56,4.56,0,0,1,.34,2.09,4.35,4.35,0,0,1-3.13,3.72,3.38,3.38,0,0,1-2.33-.17,2.72,2.72,0,0,1-1.59-3.14,1.74,1.74,0,0,1,.88-1.06,1.67,1.67,0,0,1,.93-.18,1,1,0,0,1,.79.45,1,1,0,0,0-.71.11.89.89,0,0,0-.48.93,1.21,1.21,0,0,0,.33.5,1.16,1.16,0,0,0,.65.31,1.43,1.43,0,0,0,.79-.12,2.23,2.23,0,0,0,.87-.64,1.94,1.94,0,0,0,.49-1,2.43,2.43,0,0,0-.06-1,4.07,4.07,0,0,0-1.05-1.79c-1-1-2.54-1.66-5.14-1.53A59.22,59.22,0,0,0,423.29,160.92Z"/><path class="cls-5" d="M372.47,443.38a10.12,10.12,0,0,1-4.57,1.18A11.27,11.27,0,0,1,364,444a11.14,11.14,0,0,1-7.23-6.92,12.44,12.44,0,0,1-.73-3.6,14.61,14.61,0,0,1,2.36-8.74,20.9,20.9,0,0,1,7.3-6.83,24.14,24.14,0,0,1,9.3-3,23.76,23.76,0,0,1,9.57.84,24.94,24.94,0,0,1,8.38,4.44,23.72,23.72,0,0,1,6.26,7.53,8.42,8.42,0,0,1-1,.64,22.69,22.69,0,0,0-6-7.23,21.18,21.18,0,0,0-16.94-4.35,22.67,22.67,0,0,0-8.34,3.16,20.19,20.19,0,0,0-6.34,6.17,13.33,13.33,0,0,0-2.18,7.28,11.21,11.21,0,0,0,.41,3,9.15,9.15,0,0,0,5.66,6.24,9.23,9.23,0,0,0,3.46.66,8.24,8.24,0,0,0,4-1,6.17,6.17,0,0,0,2.92-3.11,3.64,3.64,0,0,0,.24-1.68,3.7,3.7,0,0,0-.35-1.23,4.82,4.82,0,0,0-.66-1,4.52,4.52,0,0,0-1.05-.86,7.59,7.59,0,0,0-2.38-.89,6.08,6.08,0,0,0-1.43-.07,2.29,2.29,0,0,1,1.06-1.31,3.39,3.39,0,0,1,1.71-.53,4.34,4.34,0,0,1,2.34.57,4.57,4.57,0,0,1,1.75,1.83,4.8,4.8,0,0,1,.5,1.8,7.81,7.81,0,0,1-.07,1.73,9.42,9.42,0,0,1-.54,2.06A7.37,7.37,0,0,1,372.47,443.38Z"/><path class="cls-5" d="M344.22,404.08a5,5,0,0,0-3.39-.38,6.79,6.79,0,0,0-2.67,1.29,7.66,7.66,0,0,0-2.64,4.23,8.43,8.43,0,0,0,.48,4.9,10.4,10.4,0,0,0,4.15,4.93,14.07,14.07,0,0,0,7.2,2,20.25,20.25,0,0,0,7.59-1.44c.59-.23,1.17-.47,1.74-.74,9.05-4.21,12.91-10.6,26.74-6.77-14.07-1.61-18.61,4.29-25.86,8.3-.61.34-1.24.66-1.89.95a21.48,21.48,0,0,1-8.31,2.07,15.45,15.45,0,0,1-8.59-2.23,12.64,12.64,0,0,1-1.84-1.42,12.9,12.9,0,0,1-1.42-1.58,12.2,12.2,0,0,1-1.73-3.3,10,10,0,0,1-.08-6.23,9.72,9.72,0,0,1,3.61-4.85,8.48,8.48,0,0,1,3.28-1.39,6.41,6.41,0,0,1,4.2.56,4.4,4.4,0,0,1,1.73,1.64,3.76,3.76,0,0,1,.53,2.38,4.28,4.28,0,0,1-.74,1.89,3.55,3.55,0,0,1-1.3,1.16,3,3,0,0,1-1.94.24,3.14,3.14,0,0,1-2.09-1.54,2.61,2.61,0,0,1-.33-1.49,2.51,2.51,0,0,1,.44-1.23,2.37,2.37,0,0,1,1.53-1,1.64,1.64,0,0,1,1.13.17,1.08,1.08,0,0,1,.38.35,2,2,0,0,0-.4.21,1.62,1.62,0,0,0-.45.54,1.58,1.58,0,0,0-.2.74c0,.26.07.28.15.47a1.76,1.76,0,0,0,.53.52,1.44,1.44,0,0,0,.65.22,1.27,1.27,0,0,0,.83-.29,1.74,1.74,0,0,0,.61-1.12A3,3,0,0,0,344.22,404.08Z"/><path class="cls-5" d="M374.41,406.85l7.77-1.69a63.08,63.08,0,0,1,6.71-1.07,30.06,30.06,0,0,1,11.65.91,18.57,18.57,0,0,1,9.79,6.94,25.23,25.23,0,0,1,3.38,6.34,20.5,20.5,0,0,1,1.34,8.53,14.66,14.66,0,0,1-1.08,4.5,14.93,14.93,0,0,1-2.41,3.91,16.22,16.22,0,0,1-7.47,5,16,16,0,0,1-8.89.1,17.58,17.58,0,0,1-7.63-4.28,16.62,16.62,0,0,1-4.51-7.4,14.17,14.17,0,0,1-.54-4.34,13,13,0,0,1,.9-4.28,11.85,11.85,0,0,1,2.3-3.7,10.44,10.44,0,0,1,3.56-2.53,9.79,9.79,0,0,1,8.5.19,9.07,9.07,0,0,1,3.53,3.5,7.82,7.82,0,0,1-3.18,10.86c-.19-.36-.38-.71-.59-1.06a6.78,6.78,0,0,0,3.6-5.06A7.44,7.44,0,0,0,397.2,415a8.42,8.42,0,0,0-7.41-.1,9.08,9.08,0,0,0-3.08,2.26,10.41,10.41,0,0,0-2,3.32,11,11,0,0,0-.7,3.8,12.51,12.51,0,0,0,.58,3.84,14.88,14.88,0,0,0,4.23,6.49,15.79,15.79,0,0,0,6.87,3.59,13.92,13.92,0,0,0,7.63-.28c4.87-1.62,8.8-6.2,9.12-11.35a18.8,18.8,0,0,0-1.14-7.48,24.11,24.11,0,0,0-2.93-5.81,16.82,16.82,0,0,0-8.47-6.52A27.15,27.15,0,0,0,389,405.51a52.05,52.05,0,0,0-6.58.9c-2.36.44-4.92,1-7.77,1.62a60,60,0,0,1-8.5,1.23,15.5,15.5,0,0,1-3.58-.17,7.45,7.45,0,0,1-2.8-1.09,5.63,5.63,0,0,1-2.09-2.47,4.49,4.49,0,0,1-.34-2.1,4.21,4.21,0,0,1,1.05-2.41,4.32,4.32,0,0,1,2.08-1.31,3.35,3.35,0,0,1,2.32.17,2.72,2.72,0,0,1,1.6,3.15,1.76,1.76,0,0,1-.89,1.05,1.56,1.56,0,0,1-.92.18,1,1,0,0,1-.8-.45.93.93,0,0,0,.72-.11.88.88,0,0,0,.47-.93,1.08,1.08,0,0,0-.33-.5A1.16,1.16,0,0,0,362,402a1.45,1.45,0,0,0-.79.12,2.41,2.41,0,0,0-.87.64,2,2,0,0,0-.49,1,2.6,2.6,0,0,0,.06,1,4.07,4.07,0,0,0,1.05,1.79c1,1,2.54,1.66,5.14,1.53A59.35,59.35,0,0,0,374.41,406.85Z"/><path class="cls-5" d="M425.22,443.38a10.19,10.19,0,0,0,4.57,1.18,11.32,11.32,0,0,0,4-.59,11.48,11.48,0,0,0,5.6-3.92,11,11,0,0,0,1.62-3,12.79,12.79,0,0,0,.74-3.6,14.69,14.69,0,0,0-2.37-8.74,20.82,20.82,0,0,0-7.3-6.83,24.09,24.09,0,0,0-9.3-3,23.7,23.7,0,0,0-9.56.84,24.9,24.9,0,0,0-8.39,4.44,23.56,23.56,0,0,0-6.25,7.53,7.72,7.72,0,0,0,1,.64,22.56,22.56,0,0,1,6-7.23,21.15,21.15,0,0,1,16.93-4.35,22.72,22.72,0,0,1,8.35,3.16,20.06,20.06,0,0,1,6.33,6.17,13.44,13.44,0,0,1,2.19,7.28,11.2,11.2,0,0,1-.42,3A9.5,9.5,0,0,1,437.8,439a9.36,9.36,0,0,1-4.53,3.66,9.23,9.23,0,0,1-3.46.66,8.27,8.27,0,0,1-4-1,6.15,6.15,0,0,1-2.91-3.11,3.64,3.64,0,0,1-.24-1.68,3.28,3.28,0,0,1,.35-1.23,4.76,4.76,0,0,1,.65-1,4.52,4.52,0,0,1,1.05-.86,7.54,7.54,0,0,1,2.39-.89,6,6,0,0,1,1.42-.07,2.3,2.3,0,0,0-1.05-1.31,3.46,3.46,0,0,0-1.72-.53,4.31,4.31,0,0,0-2.33.57,4.5,4.5,0,0,0-1.75,1.83,4.8,4.8,0,0,0-.5,1.8,7.25,7.25,0,0,0,.07,1.73,9.34,9.34,0,0,0,.53,2.06A7.37,7.37,0,0,0,425.22,443.38Z"/><path class="cls-5" d="M453.48,404.08a5,5,0,0,1,3.38-.38,6.83,6.83,0,0,1,2.68,1.29,7.64,7.64,0,0,1,2.63,4.23,8.35,8.35,0,0,1-.48,4.9,10.43,10.43,0,0,1-4.14,4.93,14.07,14.07,0,0,1-7.2,2,20.22,20.22,0,0,1-7.59-1.44c-.59-.23-1.17-.47-1.74-.74-9-4.21-12.91-10.6-26.74-6.77,14.06-1.61,18.6,4.29,25.85,8.3.61.34,1.24.66,1.89.95a21.48,21.48,0,0,0,8.32,2.07,15.42,15.42,0,0,0,8.58-2.23,12.64,12.64,0,0,0,1.84-1.42,12.9,12.9,0,0,0,1.42-1.58,12.2,12.2,0,0,0,1.73-3.3,10,10,0,0,0,.08-6.23,9.7,9.7,0,0,0-3.6-4.85,8.53,8.53,0,0,0-3.29-1.39,6.42,6.42,0,0,0-4.2.56,4.37,4.37,0,0,0-1.72,1.64,3.7,3.7,0,0,0-.54,2.38,4.41,4.41,0,0,0,.74,1.89,3.71,3.71,0,0,0,1.3,1.16,3,3,0,0,0,1.94.24,3.16,3.16,0,0,0,2.1-1.54,2.78,2.78,0,0,0,.33-1.49,2.51,2.51,0,0,0-.45-1.23,2.35,2.35,0,0,0-1.53-1,1.64,1.64,0,0,0-1.13.17,1,1,0,0,0-.37.35,2,2,0,0,1,.39.21,1.65,1.65,0,0,1,.46.54,1.71,1.71,0,0,1,.2.74c0,.26-.08.28-.16.47a1.76,1.76,0,0,1-.53.52,1.4,1.4,0,0,1-.65.22,1.29,1.29,0,0,1-.83-.29,1.74,1.74,0,0,1-.61-1.12A2.94,2.94,0,0,1,453.48,404.08Z"/><path class="cls-5" d="M423.29,406.85l-7.77-1.69a63.48,63.48,0,0,0-6.71-1.07,30,30,0,0,0-11.65.91,18.54,18.54,0,0,0-9.8,6.94,25.55,25.55,0,0,0-3.38,6.34,20.51,20.51,0,0,0-1.33,8.53,14.38,14.38,0,0,0,1.08,4.5,14.9,14.9,0,0,0,2.4,3.91,16.2,16.2,0,0,0,7.48,5,16,16,0,0,0,8.88.1,17.58,17.58,0,0,0,7.63-4.28,16.53,16.53,0,0,0,4.51-7.4,13.87,13.87,0,0,0,.54-4.34,13,13,0,0,0-.89-4.28,12,12,0,0,0-2.3-3.7,10.63,10.63,0,0,0-3.56-2.53,9.81,9.81,0,0,0-8.51.19,9.2,9.2,0,0,0-3.53,3.5,7.64,7.64,0,0,0,1.19,9.38,7.53,7.53,0,0,0,2,1.48c.18-.36.38-.71.58-1.06a6.8,6.8,0,0,1-3.6-5.06,7.46,7.46,0,0,1,3.94-7.17,8.44,8.44,0,0,1,7.42-.1A9.18,9.18,0,0,1,411,417.2a10.41,10.41,0,0,1,2,3.32,11.51,11.51,0,0,1,.7,3.8,12.22,12.22,0,0,1-.59,3.84,14.78,14.78,0,0,1-4.22,6.49,15.9,15.9,0,0,1-6.87,3.59,14,14,0,0,1-7.64-.28c-4.87-1.62-8.8-6.2-9.11-11.35a18.62,18.62,0,0,1,1.13-7.48,24.11,24.11,0,0,1,2.93-5.81,16.82,16.82,0,0,1,8.47-6.52,27.15,27.15,0,0,1,10.94-1.29,51.81,51.81,0,0,1,6.58.9c2.36.44,4.92,1,7.77,1.62a60.23,60.23,0,0,0,8.5,1.23,15.56,15.56,0,0,0,3.59-.17,7.4,7.4,0,0,0,2.79-1.09,5.65,5.65,0,0,0,2.1-2.47,4.62,4.62,0,0,0,.34-2.1,4.35,4.35,0,0,0-3.13-3.72,3.38,3.38,0,0,0-2.33.17,2.73,2.73,0,0,0-1.59,3.15,1.75,1.75,0,0,0,.88,1.05,1.59,1.59,0,0,0,.93.18,1,1,0,0,0,.79-.45.9.9,0,0,1-.71-.11.89.89,0,0,1-.48-.93,1.27,1.27,0,0,1,.33-.5,1.16,1.16,0,0,1,.65-.31,1.43,1.43,0,0,1,.79.12,2.33,2.33,0,0,1,.87.64,1.94,1.94,0,0,1,.49,1,2.43,2.43,0,0,1-.06,1,4.07,4.07,0,0,1-1.05,1.79c-1,1-2.54,1.66-5.14,1.53A59.22,59.22,0,0,1,423.29,406.85Z"/></svg>